<svg xmlns="http://www.w3.org/2000/svg" viewBox="0 0 321 256" fill="white">
    <path
        d="M187.608,246.235 C199.491,242.483 282.845,208.895 299.878,202.43 C301.583,201.783 302.065,199.615 300.794,198.305 C298.916,196.367 295.476,194.19 289.46,194.095 C281.091,193.962 208.95,216.825 208.95,216.825 C208.95,216.825 174.93,222.562 170.76,221.867 C166.589,221.172 165.362,218.391 165.362,215.61 C165.362,212.83 167.939,209.558 174.195,208.862 C180.452,208.167 216.913,206.042 223.146,202.237 C229.443,198.394 228.469,191.808 224.863,190.46 C219.844,188.584 116.002,188.17 64.313,189.151 C57.448,189.281 40.788,188.922 18.511,188.988 C22.533,214.54 29.748,236.34 45.337,255.563 C60.06,248.039 76.295,242.913 96.046,243.786 C110.09,244.406 174.401,250.406 187.608,246.235" />
    <path
        d="M100.372,48.981 C91.392,60.37 69.85,92.062 68.211,135.798 C68.054,140.001 65.044,143.267 61.477,143.146 L48.095,143.141 C43.789,142.996 40.687,137.666 41.853,132.777 C46.108,114.949 59.562,76.072 99.411,47.666 C100.156,47.135 100.965,48.23 100.372,48.981 Z M314.19,155.203 L301.089,155.203 C298.331,81.636 239.352,22.474 165.845,19.483 L165.845,5.833 C165.845,2.611 163.233,0 160.012,0 C156.789,0 154.178,2.611 154.178,5.833 L154.178,19.483 C80.672,22.474 21.693,81.636 18.935,155.203 L5.834,155.203 C2.612,155.203 0,157.814 0,161.036 C0,164.258 2.612,166.869 5.834,166.869 L314.19,166.869 C317.411,166.869 320.023,164.258 320.023,161.036 C320.023,157.814 317.411,155.203 314.19,155.203 L314.19,155.203 Z" />
</svg>