<svg width="4450" height="4402" viewBox="0 0 4450 4402" fill="none" xmlns="http://www.w3.org/2000/svg">
<ellipse cx="2225" cy="2201" rx="2225" ry="2201" fill="black"/>
<path fill-rule="evenodd" clip-rule="evenodd" d="M1508.12 333.172C477.276 728.798 -38.4436 1886.91 357.174 2917.73C752.793 3948.58 1910.9 4464.3 2941.73 4068.68C3972.57 3673.06 4488.29 2514.96 4092.68 1484.12C3697.06 453.278 2538.96 -62.4417 1508.12 333.172ZM1523.88 374.252C2532.05 -12.6549 3664.68 491.719 4051.6 1499.88C4438.52 2508.05 3934.14 3640.68 2925.97 4027.6C1917.81 4414.52 785.17 3910.14 398.253 2901.97C11.3362 1893.81 515.713 761.172 1523.88 374.252Z" fill="#F36218"/>
<path d="M700.197 3188.11C755.292 3280 1006.09 3280.31 1090.19 3229.89C1141.42 3199.17 1151.47 3132.58 1128.1 3093.6C1076.34 3007.26 845.597 2991.16 737.55 3055.93C691.881 3083.3 674.821 3145.78 700.197 3188.11ZM718.585 3150.59C711.573 3138.89 721.042 3129.42 740.646 3119.18C855.262 3060.32 1078.76 3084.56 1107.15 3131.89C1113.83 3143.04 1108.48 3153.06 1090.1 3164.08C990.962 3223.51 746.968 3197.93 718.585 3150.59Z" fill="white"/>
<path d="M1375.58 3422.66C1389.62 3408.23 1391.02 3376.07 1379.85 3365.2C1376.6 3362.03 1372.44 3360.71 1366.94 3361.7C1274.97 3385.47 1180.25 3410.19 1105.68 3430.96C1072.75 3407.08 1037.04 3381.4 1011.07 3363.38C1097.41 3364.03 1262.02 3345.7 1278.79 3329.39C1293.74 3314.95 1287.78 3281.97 1278.47 3272.92C1274.75 3269.29 1270.14 3268.44 1264.2 3270.82C1201.14 3292.81 1012.43 3328.46 976.956 3320.23C971.9 3319.84 967.333 3321.74 964.164 3324.99C950.578 3338.96 950.996 3369.26 969.613 3387.37C975.721 3393.32 1005.06 3415.49 1039.67 3441.64C1041.98 3443.39 1044.31 3445.15 1046.66 3446.93C1000.93 3460.42 970.749 3470.02 966.674 3474.21C951.265 3489.11 951.254 3521.72 962.89 3533.04C965.684 3535.75 969.381 3537.54 973.96 3536.56C989.017 3529.46 1043.9 3513.1 1109.31 3494.29C1134.36 3513.23 1155.26 3529.93 1166.42 3539.88C1174.32 3546.66 1181.18 3545.19 1186.17 3540.07C1195.68 3530.3 1198.08 3504.55 1184.58 3491.42C1181.79 3488.7 1176.21 3484.18 1168.78 3477.86C1243.81 3457.54 1321.16 3438.56 1363.74 3429.25C1368.32 3428.27 1372.42 3425.92 1375.58 3422.66Z" fill="white"/>
<path d="M1361.44 3782.86C1342.1 3770.91 1331.81 3749.28 1324.68 3725.01C1429.86 3712.94 1553.02 3673.04 1589.9 3613.39C1616.2 3570.86 1605.78 3508.68 1561.6 3481.36C1488.69 3436.29 1367.82 3479.89 1343.92 3518.56C1332.3 3537.34 1338.02 3567.59 1353.14 3577.71C1358.68 3581.12 1365.56 3582.33 1369.18 3577.7C1418.3 3527.9 1520.37 3498.63 1560.14 3523.22C1569.53 3529.03 1572.41 3539.2 1562.64 3553.77C1530.45 3603.35 1406.98 3649.93 1310.88 3674.49C1304 3647.33 1294.52 3623.15 1274.63 3610.85C1239.83 3589.34 1173.22 3606.94 1153.07 3639.53C1138.04 3663.83 1146.48 3699.58 1170.78 3714.61C1190.11 3726.56 1229.92 3731.32 1277.96 3728.96C1275.68 3757.33 1278.64 3785.88 1305.72 3802.61C1332.22 3819 1361.34 3806.47 1367.49 3796.53C1370.57 3791.56 1366.96 3786.28 1361.44 3782.86ZM1193.72 3689.85C1189.85 3687.46 1188.25 3682.65 1191.66 3677.13C1202.93 3658.9 1254.61 3642 1273.39 3653.61C1281.12 3658.39 1283.44 3668.22 1283.16 3681.02C1237.03 3691.43 1202 3694.98 1193.72 3689.85Z" fill="white"/>
<path d="M1589.33 3786.34C1602.1 3791.09 1665.12 3811.7 1699.21 3824.35C1707.73 3827.51 1714.7 3821.79 1717.86 3813.26C1722.38 3801.09 1718.06 3782.86 1695.54 3774.5C1672.4 3765.92 1616.33 3747.18 1594.78 3739.89C1582.61 3735.37 1574.2 3741.25 1571.04 3749.77C1566.74 3761.34 1571.66 3779.79 1589.33 3786.34Z" fill="white"/>
<path d="M2042.37 3633.41C2038.54 3632.67 2034.98 3633.96 2031.69 3637.29C2015.98 3653.42 1935.13 3725.7 1855.54 3726.77C1850.96 3726.54 1848.56 3728.72 1848.05 3731.27C1846.32 3740.19 1854.05 3754.92 1874.44 3758.89C1887.82 3761.49 1904.24 3758.72 1922.92 3751.1C1845.82 3834.69 1763.94 3929.26 1760.97 3944.55C1756.26 3968.78 1773.85 3994.02 1789.14 3997C1794.25 3997.99 1798.45 3996.82 1801.74 3993.49C1839.4 3939.28 1992.04 3766.52 2056.85 3695.1C2060.38 3690.49 2062.65 3685.64 2063.77 3679.91C2067.73 3659.51 2055.12 3635.89 2042.37 3633.41Z" fill="white"/>
<path d="M2345.49 3731.45C2346.98 3691.21 2308.46 3643.64 2251.36 3641.52C2176.08 3638.72 2111.54 3696.76 2110.33 3729.2C2109.64 3748.02 2131.33 3776.12 2145.61 3776.65C2149.5 3776.8 2153.48 3774.99 2155.56 3771.17C2181.53 3719.5 2237.05 3676.73 2274.04 3678.1C2291.56 3678.76 2297.69 3688.73 2297.28 3699.76C2296.12 3730.91 2238.66 3808.05 2128.28 3823.44C2124.36 3823.95 2122.32 3826.47 2122.2 3829.72C2121.81 3840.1 2139.25 3860.24 2159.37 3860.99C2168.45 3861.33 2177.04 3857.75 2186.77 3858.11C2202.34 3858.69 2212.29 3870.76 2211.52 3891.52C2208.96 3960.31 2116.69 4012.76 2066.08 4010.88C2045.96 4010.13 2038.5 4000.76 2038.98 3987.78C2040.02 3959.87 2083.8 3918.61 2127.57 3912.44C2134.08 3912.03 2136.8 3908.89 2136.97 3904.34C2137.37 3893.31 2117.33 3873.07 2092.05 3871.48C2047.97 3868.54 1991.05 3913.86 1989.32 3960.59C1987.56 4007.96 2041.24 4049.59 2106.13 4052.01C2196.33 4055.36 2268.64 3980.72 2270.88 3920.37C2272.12 3887.28 2251.57 3863.12 2228.12 3847.3C2282.06 3829.16 2343.7 3779.47 2345.49 3731.45Z" fill="white"/>
<path d="M2803.4 3644.66C2794.93 3613.31 2755.34 3593.73 2739.66 3597.96C2734.02 3599.49 2729.69 3603.35 2730.86 3607.74C2732.05 3612.12 2736.44 3610.94 2740.5 3625.99C2752.18 3669.24 2708.05 3710.08 2656.86 3752.15C2648.5 3743.65 2641.88 3734 2638.49 3721.47C2622.24 3661.28 2699.68 3599.34 2736.33 3588.1C2741.97 3586.58 2743.97 3584.02 2743.13 3580.89C2740.76 3572.11 2714.7 3560.31 2682.73 3568.94C2628.81 3583.5 2556.13 3655.59 2573.9 3721.42C2581.69 3750.25 2602.61 3765.46 2626.61 3777.14C2566.57 3826.31 2508.97 3879.53 2525.9 3942.22C2540.12 3994.88 2598.14 4022.93 2659.57 4006.34C2738.57 3985.02 2794.44 3897.96 2780.21 3845.3C2771.75 3813.94 2742.07 3799.94 2711.84 3785.69C2711.26 3785.42 2710.67 3785.14 2710.09 3784.87C2766.41 3739.39 2816.59 3693.56 2803.4 3644.66ZM2715.29 3844C2729.17 3895.4 2671.86 3964.69 2628.61 3976.36C2603.53 3983.14 2589.1 3969.55 2583.52 3948.86C2570.14 3899.33 2626.13 3852.6 2684.64 3805.19C2699.3 3814.68 2710.54 3826.44 2715.29 3844Z" fill="white"/>
<path d="M2962.78 3446.58C2900.64 3477.65 2825.38 3727.97 2873.58 3831.65C2898.54 3885.96 2958.66 3904.56 3008.04 3879.88C3082.96 3842.42 3108.53 3714.94 3078.62 3655.11C3058.3 3614.45 3006.04 3595.57 2968.86 3614.15C2953.17 3621.99 2938.36 3637.38 2925.88 3658.87C2943.89 3581.62 2983.68 3508.73 3015.34 3483.47C3020.57 3480.86 3020.57 3475.05 3017.66 3469.24C3012.14 3458.21 2988.34 3433.81 2962.78 3446.58ZM2983.09 3641.16C2995.28 3635.06 3006.9 3637.97 3015.9 3655.97C3043.48 3711.16 3008.9 3839.51 2973.48 3857.22C2959.53 3864.19 2945.89 3854.31 2935.14 3831.37C2927.89 3815.4 2923.53 3796.52 2921.5 3776.48C2920.93 3721.6 2953.46 3655.97 2983.09 3641.16Z" fill="white"/>
<path d="M3259.36 3198.89C3256.57 3201.62 3255.62 3205.29 3256.49 3209.89C3260.88 3231.97 3274.58 3339.55 3230.34 3405.72C3227.56 3409.37 3227.98 3412.59 3229.8 3414.44C3236.17 3420.93 3252.68 3422.92 3267.52 3408.36C3277.25 3398.81 3284.28 3383.72 3288.58 3364.01C3313.73 3474.91 3345.21 3595.97 3356.13 3607.09C3373.42 3624.7 3404.18 3624.53 3415.3 3613.61C3419.01 3609.97 3420.44 3605.85 3419.56 3601.25C3396.25 3539.5 3340.46 3315.82 3318.37 3221.94C3316.58 3216.41 3313.88 3211.8 3309.78 3207.62C3295.22 3192.8 3268.62 3189.79 3259.36 3198.89Z" fill="white"/>
<path d="M3668.9 3249.17C3655.88 3267.79 3633.69 3276.84 3609.06 3282.59C3602.97 3176.89 3570.12 3051.66 3512.65 3011.46C3471.68 2982.8 3409.01 2989.68 3379.24 3032.25C3330.1 3102.49 3366.78 3225.63 3404.04 3251.69C3422.12 3264.34 3452.65 3260.34 3463.61 3245.82C3467.33 3240.5 3468.93 3233.69 3464.52 3229.81C3417.57 3177.95 3394.14 3074.39 3420.94 3036.06C3427.28 3027.02 3437.6 3024.73 3451.58 3035.32C3499.26 3070.25 3538.77 3196.17 3557.84 3293.51C3530.34 3298.84 3505.65 3306.93 3492.25 3326.09C3468.8 3359.61 3482.6 3427.11 3514 3449.08C3537.41 3465.46 3573.58 3459.06 3589.96 3435.65C3602.98 3417.03 3610 3377.55 3610.36 3329.46C3638.56 3333.34 3667.22 3332 3685.46 3305.93C3703.33 3280.39 3692.48 3250.6 3682.89 3243.9C3678.1 3240.55 3672.62 3243.85 3668.9 3249.17ZM3566.54 3411.34C3563.93 3415.07 3559.04 3416.4 3553.72 3412.68C3536.16 3400.39 3522.21 3347.84 3534.86 3329.75C3540.08 3322.3 3550.02 3320.54 3562.8 3321.55C3570.57 3368.2 3572.13 3403.36 3566.54 3411.34Z" fill="white"/>
<path d="M1184.04 1486.28C1186.74 1483.99 1188.71 1481.63 1189.92 1479.06C1191.49 1475.72 1191.78 1472.01 1190.69 1467.57C1187.68 1457.66 1183.92 1442.61 1179.65 1423.63C1153.04 1305.47 1106.5 1035 1096.77 903.252C1096.4 900.012 1094.74 896.665 1092.99 894.598C1088.3 889.092 1079.49 887.092 1069.78 888.225C1114.49 843.118 1158.1 803.692 1193.93 773.265C1206.33 762.718 1212.46 750.398 1206.61 743.505C1195.49 730.412 1145.48 730.198 1110.34 760.052C985.645 865.985 870.754 993.252 809.218 1095.35C758.846 1178.48 753.389 1237.68 786.166 1276.27C822.456 1318.97 893.437 1321.54 947.176 1275.89C1003.67 1227.89 1016.16 1153.23 990.988 1123.6C976.354 1106.39 951.18 1100.48 940.846 1109.27C937.401 1112.18 935.816 1115.91 935.986 1121.69C938.01 1152 927.591 1224.9 889.699 1257.1C871.786 1272.32 855.531 1267.14 845.581 1255.44C823.925 1229.94 835.302 1184.69 869.377 1128.46C907.105 1066.76 963.982 998.265 1023.58 935.771C1022.99 937.818 1022.95 939.91 1022.91 942.182V942.183C1022.88 943.389 1022.86 944.645 1022.75 945.972C1020.5 1013.13 1074.97 1447.27 1103.65 1481.03C1108.23 1486.42 1114.72 1490.35 1122.12 1492.95C1142.82 1500.25 1170.63 1497.17 1183.57 1486.66C1183.73 1486.54 1183.88 1486.41 1184.04 1486.28Z" fill="white"/>
<path fill-rule="evenodd" clip-rule="evenodd" d="M1403.92 1275.72C1426.09 1261.22 1440.91 1232.51 1448.2 1193.65C1448.25 1193.4 1448.3 1193.15 1448.34 1192.91C1448.53 1193 1448.73 1193.09 1448.92 1193.18C1473.57 1204.99 1505.03 1207.84 1531.38 1190.63C1546.38 1180.83 1558.9 1165 1568.48 1143.92C1571.91 1136.36 1574.97 1128.12 1577.64 1119.23C1580.95 1108.24 1583.65 1096.27 1585.73 1083.4C1586.08 1081.26 1586.4 1079.1 1586.71 1076.92C1589.14 1059.85 1590.5 1041.3 1590.74 1021.45L1590.72 1020.78C1590.02 1014.78 1587.88 1009.74 1584.44 1004.46C1580.17 997.936 1573.99 992.385 1567.26 988.344C1565.61 987.359 1563.94 986.463 1562.25 985.666C1559.4 984.316 1556.51 983.245 1553.68 982.492C1545.18 980.238 1537.2 980.878 1531.72 984.452C1528.85 986.318 1526.04 990.572 1525.05 995.305L1524.93 996.318C1524.08 1055.64 1516.44 1105.16 1505.96 1133.39C1501.93 1144.21 1497.81 1151.73 1493.17 1154.76C1492.06 1155.49 1491.13 1156.05 1490.18 1155.82C1489.06 1155.56 1488.25 1154.45 1487.28 1152.96C1482.22 1145.23 1478.97 1129.45 1476.65 1110.33C1470.98 1063.81 1471.82 998.038 1473.53 972.892C1474.61 967.158 1472.72 962.225 1470.44 958.731C1466.21 952.251 1457.96 947.705 1448.09 945.745C1434.34 943.025 1417.6 945.265 1406.42 952.572C1403.81 954.278 1401.8 956.105 1399.97 957.972C1373.89 952.558 1338.82 953.265 1316.54 967.812C1292.02 983.825 1276.01 1023.8 1268.64 1069.95C1257.78 1137.93 1265.25 1218.95 1287.04 1252.31C1296.22 1266.36 1310.58 1276.6 1326.81 1282.45C1352.13 1291.57 1382 1290.03 1403.92 1275.72ZM1401 1271.25C1421.22 1258.04 1434.73 1232.31 1441.97 1197.72C1442.85 1193.52 1443.63 1189.18 1444.33 1184.72C1447.48 1186.56 1450.79 1188.25 1454.23 1189.76C1476.84 1199.66 1504.84 1201.59 1528.46 1186.16C1546.95 1174.08 1561.32 1152.26 1571 1122.61C1575.3 1109.43 1578.68 1094.7 1581.09 1078.59C1581.43 1076.25 1581.76 1073.88 1582.07 1071.49C1584.07 1055.94 1585.19 1039.19 1585.41 1021.39C1584.82 1016.24 1582.93 1011.92 1579.97 1007.39C1576.62 1002.27 1571.97 997.822 1566.81 994.363C1565.18 993.266 1563.5 992.269 1561.79 991.38C1551.83 986.199 1541.06 984.722 1534.62 988.919C1532.69 990.185 1530.94 993.185 1530.26 996.398C1529.02 1082.25 1513.58 1147.8 1496.09 1159.23C1490.9 1162.61 1486.62 1161.72 1482.81 1155.88C1465.04 1128.67 1465.76 1008.03 1468.24 972.185C1469.13 967.905 1467.66 964.239 1465.97 961.652C1457.09 948.039 1426.2 946.025 1409.34 957.039C1406.1 959.145 1403.93 961.492 1401.77 963.825C1376.7 958.012 1341.49 957.892 1319.46 972.279C1260.49 1010.8 1255.95 1194.95 1291.5 1249.39C1300.63 1263.36 1315.22 1273.29 1331.58 1278.55C1354.67 1285.98 1381.28 1284.13 1401 1271.25ZM1372.26 1245.64C1367.08 1249.03 1363.01 1247.05 1359.62 1241.88C1335.5 1204.93 1333.22 1016 1366.92 993.985C1371.45 991.025 1374.44 992.772 1377.41 997.305C1404.06 1038.13 1407.25 1222.79 1372.26 1245.64ZM1370.94 997.905C1371.24 998.185 1372.32 999.265 1372.94 1000.22C1378.28 1008.38 1382.48 1022.64 1385.72 1040.18C1393.54 1082.69 1395.06 1144.1 1388.56 1188.88C1386.24 1204.92 1382.9 1218.8 1378.37 1228.74C1375.76 1234.5 1372.86 1238.88 1369.34 1241.17C1368.54 1241.69 1367.89 1242.07 1367.22 1241.99C1365.96 1241.82 1365.14 1240.57 1364.16 1239.07C1364.14 1239.03 1364.11 1239 1364.09 1238.96C1359.29 1231.6 1355.57 1217.84 1352.72 1200.57C1345.77 1158.54 1344.72 1096.32 1351.2 1051.01C1353.53 1034.75 1356.8 1020.72 1361.2 1010.72C1363.72 1004.97 1366.46 1000.65 1369.84 998.452C1370.16 998.225 1370.66 998.022 1370.9 997.921C1370.92 997.916 1370.93 997.91 1370.94 997.905ZM1368.82 923.305C1387.53 911.092 1400.6 889.105 1404.3 867.758C1406.86 853.025 1404.96 838.638 1397.84 827.732C1391.02 817.318 1379.96 810.279 1367.06 807.012C1348.4 802.292 1325.89 805.492 1307.89 817.238C1287.91 830.292 1275.47 853.292 1272.58 875.478C1270.61 890.638 1273.1 905.385 1280.34 916.478C1288.18 928.478 1300.36 934.545 1313.81 936.332C1332.94 938.865 1354.68 932.545 1368.82 923.305ZM1365.92 918.839C1395.08 899.799 1409.45 855.279 1393.37 830.652C1378.13 807.319 1338.66 803.505 1310.8 821.705C1279.69 842.025 1268.31 888.292 1284.81 913.558C1302.17 940.132 1343.88 933.225 1365.92 918.839ZM1335.72 910.825C1330.53 914.212 1326.25 913.305 1323.29 908.772C1313.97 894.518 1320.45 844.985 1341.2 831.438C1347.02 827.638 1351.32 828.532 1353.85 832.425C1363.16 846.678 1354.52 898.545 1335.72 910.825ZM1332.8 906.358C1331.6 907.145 1330.57 907.692 1329.6 907.518C1328.82 907.385 1328.3 906.692 1327.76 905.852C1326.24 903.545 1325.37 900.052 1324.88 895.918C1324.02 888.732 1324.49 879.772 1326.21 870.852C1328.97 856.505 1334.73 842.038 1344.1 835.905C1346.54 834.318 1348.33 833.718 1349.38 835.332C1350.88 837.625 1351.64 841.159 1352.04 845.372C1352.73 852.785 1352 862.078 1350.1 871.292C1347.06 886.038 1341.32 900.798 1332.8 906.358Z" fill="#13100F"/>
<path fill-rule="evenodd" clip-rule="evenodd" d="M1955.82 963.385C1949.69 964.239 1946.86 960.718 1946.01 954.585C1939.94 910.892 2018.45 739.012 2058.32 733.478C2063.69 732.732 2065.64 735.585 2066.38 740.958C2073.09 789.252 1997.22 957.639 1955.82 963.385ZM2060.29 738.732C2060.44 739.118 2060.94 740.559 2061.1 741.692C2062.45 751.345 2060.18 766.039 2055.61 783.292C2044.57 825.065 2019.76 881.265 1994.78 918.985C1985.84 932.519 1976.9 943.639 1968.57 950.705C1963.74 954.799 1959.25 957.518 1955.09 958.092C1954.16 958.225 1953.4 958.279 1952.84 957.919C1951.76 957.243 1951.55 955.759 1951.31 953.995L1951.29 953.852C1950.09 945.145 1952.58 931.119 1957.37 914.279C1969.01 873.305 1994.6 816.572 2019.78 778.359C2028.82 764.639 2037.77 753.345 2046.01 746.172C2050.74 742.052 2055.08 739.318 2059.05 738.758C2059.48 738.705 2060.05 738.718 2060.29 738.732Z" fill="#13100F"/>
<path fill-rule="evenodd" clip-rule="evenodd" d="M2282.22 909.372C2281.22 920.945 2283.57 929.692 2293.6 930.558C2333.69 934.025 2448.3 794.785 2452.44 746.972C2453.24 737.718 2449.85 731.985 2441.37 731.252C2409.76 728.518 2346.34 796.838 2291.2 877.518C2286.26 889.518 2283.02 900.118 2282.22 909.372ZM2288.04 920.145C2288.85 923.025 2290.65 924.945 2294.05 925.238C2298.09 925.598 2302.98 924.025 2308.56 921.265C2318.17 916.505 2329.4 908.118 2341.25 897.492C2374.24 867.918 2411.76 821.158 2432.28 784.425C2440.7 769.318 2446.3 756.038 2447.12 746.518C2447.44 742.892 2447.2 739.998 2445.41 738.238C2444.37 737.212 2442.84 736.732 2440.9 736.572C2432.33 735.825 2421.34 741.292 2408.57 750.692C2376.04 774.599 2334.04 824.358 2295.92 880.065C2291.34 891.265 2288.29 901.158 2287.53 909.838C2287.2 913.745 2287.24 917.265 2288.04 920.145Z" fill="#13100F"/>
<path fill-rule="evenodd" clip-rule="evenodd" d="M2578.6 959.145C2575.52 967.905 2576.65 974.039 2583.94 976.599C2600.01 982.239 2634.54 965.652 2670.18 941.239C2670.73 937.332 2672.01 933.679 2673.29 930.025C2686.1 893.505 2720.49 870.305 2753.77 871.319C2766.24 856.825 2775.49 844.479 2779.08 834.252C2782.14 825.492 2780.29 819.092 2772.26 816.279C2731.36 801.932 2594.48 913.852 2578.6 959.145ZM2583.62 960.905C2581.8 966.118 2581.37 970.052 2585.72 971.572C2591.32 973.532 2599.44 972.012 2609.21 968.585C2625.22 962.972 2645.02 951.865 2665.32 938.092C2666.02 934.718 2667.13 931.492 2668.26 928.265C2681.54 890.385 2716.78 866.105 2751.34 865.945C2762.45 852.918 2770.77 841.825 2774.04 832.492C2775.25 829.052 2775.73 826.198 2774.44 824.038C2773.69 822.798 2772.33 821.958 2770.49 821.305C2766.36 819.865 2761.05 820.118 2754.89 821.452C2744.36 823.732 2731.66 829.278 2717.98 836.905C2679.78 858.225 2634.25 895.772 2606.6 927.105C2595.17 940.065 2586.8 951.852 2583.62 960.905Z" fill="#13100F"/>
<path fill-rule="evenodd" clip-rule="evenodd" d="M3122.97 1226.12C3116 1234.42 3119.74 1239.58 3122.72 1242.08C3153.54 1267.94 3322.54 1227.89 3359.86 1183.42C3365.34 1176.9 3365.54 1173.04 3361.4 1169.56C3330.57 1143.68 3149.84 1194.1 3122.97 1226.12ZM3124.37 1235.41C3124.57 1236.61 3125.46 1237.43 3126.14 1237.99C3129.28 1240.63 3134.16 1242.29 3140.26 1243.4C3150.7 1245.3 3164.46 1245.32 3180 1243.91C3217.09 1240.53 3264.14 1228.88 3301.44 1213.45C3325.65 1203.45 3345.73 1191.97 3355.78 1180C3357.06 1178.47 3358 1177.15 3358.56 1175.95C3358.58 1175.9 3358.6 1175.85 3358.63 1175.8L3358.67 1175.71C3358.85 1175.34 3359.01 1175.03 3358.93 1174.72C3358.84 1174.36 3358.53 1174.1 3358.17 1173.8C3358.1 1173.75 3358.04 1173.7 3357.97 1173.64C3354.86 1171.04 3349.88 1169.55 3343.6 1168.65C3332.72 1167.09 3318.29 1167.63 3302.02 1169.6C3256.74 1175.12 3197.49 1192.01 3159.65 1209.25C3144.18 1216.29 3132.37 1223.21 3127.05 1229.54C3124.98 1232.01 3124.12 1233.84 3124.37 1235.41Z" fill="#13100F"/>
<path d="M1088.66 1538.38H1143.03C1153.28 1524.56 1163.82 1510.95 1174.66 1497.55C1165.73 1500.91 1154.78 1502.6 1143.78 1502.21C1135.1 1501.9 1126.44 1500.3 1118.75 1497.34C1108.43 1510.83 1098.4 1524.51 1088.66 1538.38Z" fill="white"/>
<path d="M1856.8 1013.74C1841.83 1035.59 1824.69 1056.03 1806.2 1073.91C1937.63 1032.96 2078.43 1010.74 2224.93 1010.74C2552.97 1010.74 2852.48 1122.14 3082.1 1305.86C3098.68 1305.25 3115.03 1305.7 3130.33 1307.32C3134.38 1305.65 3139.55 1303.45 3145.16 1301.01C3148.66 1299.49 3152.34 1297.88 3156.02 1296.25C3149.63 1296.12 3143.46 1295.56 3137.64 1294.61C3122.94 1292.2 3110.51 1287.3 3102.52 1280.6C3092.45 1272.15 3084.9 1260.97 3080.03 1248.59C3079.4 1248.11 3078.76 1247.63 3078.13 1247.15C3054.51 1229.38 3030.23 1212.34 3005.33 1196.05C2980.33 1195.48 2958.76 1189.79 2941.38 1179.35C2922.84 1168.21 2909.05 1151.89 2900.9 1134.14C2900.14 1133.74 2899.38 1133.33 2898.62 1132.93C2815.31 1088.58 2726.46 1052.19 2633.3 1024.9L2633.3 1024.9C2614.1 1027.09 2596.05 1025.87 2580.84 1020.53C2569.74 1016.64 2559.83 1010.79 2551.39 1003.52C2550.8 1003.38 2550.2 1003.24 2549.61 1003.11L2548.19 1002.78C2483.56 988.099 2417.14 977.716 2349.29 971.979C2333.49 976.953 2317.53 979.163 2301.93 977.812C2288.66 976.662 2276.96 972.899 2266.83 967.336C2252.91 966.943 2238.94 966.745 2224.93 966.745C2202.68 966.745 2180.56 967.243 2158.58 968.229C2146.79 975.386 2134.94 979.85 2123.22 981.478C2107.09 983.716 2092.02 980.52 2078.84 973.979C2078.39 974.024 2077.93 974.069 2077.48 974.115C2057.3 976.144 2037.26 978.584 2017.35 981.427C2002.58 994.115 1987.21 1001.92 1971.64 1004.08C1956.94 1006.12 1941.68 1003.36 1927.75 997.111C1926.28 997.417 1924.81 997.725 1923.34 998.035C1900.95 1002.76 1878.76 1008 1856.8 1013.74Z" fill="white"/>
<path d="M1195.79 1466.03L1195.87 1466.31C1196.28 1467.99 1196.54 1469.59 1196.66 1471.12C1329.33 1316.16 1502.18 1191.76 1700.81 1111.53C1704.88 1104.49 1709.13 1097.73 1713.5 1091.35C1714.26 1084.25 1715.16 1073.92 1716 1063.48C1704.86 1083.09 1690.32 1097.73 1676.78 1103.1C1657.04 1110.93 1634.11 1109.57 1614.09 1101.48C1601.83 1107.23 1589.68 1113.14 1577.64 1119.23C1574.97 1128.12 1571.91 1136.36 1568.48 1143.92C1558.9 1165 1546.38 1180.83 1531.38 1190.63C1505.03 1207.84 1473.57 1204.99 1448.92 1193.18C1448.73 1193.09 1448.53 1193 1448.34 1192.91C1448.3 1193.15 1448.25 1193.4 1448.2 1193.65C1440.91 1232.51 1426.09 1261.22 1403.92 1275.72C1382 1290.03 1352.13 1291.57 1326.81 1282.45C1275.61 1324.48 1227.86 1370.06 1184.01 1418.76C1188.59 1439.31 1192.61 1455.54 1195.79 1466.03Z" fill="white"/>
<path d="M3306.82 1538.38H3361.2C3325.28 1487.26 3285.46 1438.72 3242.13 1393.13L3241.66 1393.05C3214.45 1388.45 3187.97 1381.09 3163.8 1371.2C3162.38 1371.83 3160.97 1372.45 3159.56 1373.07C3213.72 1423.99 3263.03 1479.31 3306.82 1538.38Z" fill="white"/>
<path fill-rule="evenodd" clip-rule="evenodd" d="M2994.64 1190.2C2975.25 1188.46 2958.27 1183.28 2944.13 1174.78C2928.87 1165.61 2916.95 1152.74 2909 1138.51C2895.51 1114.38 2893.4 1086.36 2905.69 1065.91C2921.64 1039.37 2968.24 1015.91 3044.18 994.705C3031.04 985.012 3019.5 972.652 3010.74 960.172C3008.22 961.617 3005.67 963.085 3003.08 964.571C2971.74 982.575 2935.59 1003.34 2896.96 1021.84C2893.77 1022.62 2891.38 1022.09 2888.73 1020.51C2878.1 1014.13 2876.8 986.252 2886.36 970.332C2888.76 966.345 2891.41 963.425 2895.4 961.305C2932.17 943.665 2968.02 924.571 2992.98 907.065C2993.26 899.105 2995.25 891.278 2999.24 884.638C3019.97 850.132 3076.65 844.465 3101.86 859.598C3113.81 866.785 3118.45 878.598 3109.28 893.852C3100.9 907.785 3080.85 924.638 3047.93 941.878C3078.18 959.145 3116.68 959.705 3129.69 957.585C3132.88 956.785 3135.92 957.718 3137.92 958.918C3152.5 967.678 3154.21 1003.92 3143.05 1022.51C3139.86 1027.81 3135.74 1031.65 3130.44 1032.99C3083.17 1047.03 2963.16 1095.01 2946.01 1123.55C2942.42 1129.52 2943.09 1134.43 2949.06 1138.01C2972.28 1151.96 3055.25 1134.09 3127.61 1100.81C3132.26 1099.09 3136.37 1099.76 3139.69 1101.74C3146.01 1105.54 3149.08 1114.75 3148.26 1125.37C3123.01 1136.53 3102.28 1149.76 3090.64 1163.64C3086.64 1168.4 3083.36 1173.7 3080.79 1179.37C3049.48 1188.68 3021.12 1192.25 2996.55 1190.36C2995.92 1190.31 2995.28 1190.25 2994.64 1190.2ZM3087.8 1177.2C3101.1 1172.94 3114.91 1167.66 3129.17 1161.35C3134.36 1157.23 3137.81 1152.99 3141 1147.68C3144.14 1142.44 3146.25 1136.87 3147.38 1131.47C3124.35 1141.94 3105.52 1154.18 3094.72 1167.06C3092.07 1170.21 3089.77 1173.61 3087.8 1177.2Z" fill="white"/>
<path d="M3148.23 1125.69C3148.24 1125.58 3148.25 1125.48 3148.26 1125.37C3123.01 1136.53 3102.28 1149.76 3090.64 1163.64C3086.64 1168.4 3083.36 1173.7 3080.79 1179.37C3083.08 1178.68 3085.39 1177.97 3087.72 1177.22L3087.8 1177.2C3089.77 1173.61 3092.07 1170.21 3094.72 1167.06C3105.52 1154.18 3124.35 1141.94 3147.38 1131.47C3147.79 1129.51 3148.07 1127.58 3148.23 1125.69Z" fill="black"/>
<path d="M3087.8 1177.2L3087.72 1177.22C3085.39 1177.97 3083.08 1178.68 3080.79 1179.37C3079.86 1181.4 3079.02 1183.49 3078.28 1185.61C3080.39 1185.01 3082.51 1184.39 3084.65 1183.74C3084.71 1183.6 3084.77 1183.47 3084.82 1183.33C3085.72 1181.23 3086.71 1179.19 3087.8 1177.2Z" fill="black"/>
<path d="M2876.66 990.705C2876.12 992.256 2875.42 993.88 2874.6 995.494C2874.55 998.961 2874.78 1002.35 2875.29 1005.52C2876.74 1014.64 2880.66 1021.88 2885.98 1025.08C2889.93 1027.45 2893.5 1028.2 2898.25 1027.01L2899.26 1026.65C2938.08 1008.06 2974.42 987.189 3005.91 969.1L3005.92 969.098L3009.25 967.185C3015.9 976.078 3023.88 984.772 3032.77 992.412C2991.46 1004.46 2959.38 1017.28 2936.7 1030.92C2919.69 1041.15 2907.86 1051.95 2901.12 1063.16C2889.12 1083.13 2889.78 1109.96 2900.9 1134.14C2909.05 1151.89 2922.84 1168.21 2941.38 1179.35C2958.76 1189.79 2980.33 1195.48 3005.33 1196.05C3027.19 1196.55 3051.68 1193.15 3078.28 1185.61C3079.02 1183.49 3079.86 1181.4 3080.79 1179.37C3049.48 1188.68 3021.12 1192.25 2996.55 1190.36C2995.92 1190.31 2995.28 1190.25 2994.64 1190.2C2975.25 1188.46 2958.27 1183.28 2944.13 1174.78C2928.87 1165.61 2916.95 1152.74 2909 1138.51C2895.51 1114.38 2893.4 1086.36 2905.69 1065.91C2921.64 1039.37 2968.24 1015.91 3044.18 994.705C3031.04 985.012 3019.5 972.652 3010.74 960.172C3008.22 961.617 3005.67 963.085 3003.08 964.571C2971.74 982.575 2935.59 1003.34 2896.96 1021.84C2893.77 1022.62 2891.38 1022.09 2888.73 1020.51C2878.1 1014.13 2876.8 986.252 2886.36 970.332C2888.76 966.345 2891.41 963.425 2895.4 961.305C2932.17 943.665 2968.02 924.571 2992.98 907.065C2993.26 899.105 2995.25 891.278 2999.24 884.638C3019.97 850.132 3076.65 844.465 3101.86 859.598C3113.81 866.785 3118.45 878.598 3109.28 893.852C3100.9 907.785 3080.85 924.638 3047.93 941.878C3078.18 959.145 3116.68 959.705 3129.69 957.585C3132.88 956.785 3135.92 957.718 3137.92 958.918C3152.5 967.678 3154.21 1003.92 3143.05 1022.51C3139.86 1027.81 3135.74 1031.65 3130.44 1032.99C3083.17 1047.03 2963.16 1095.01 2946.01 1123.55C2942.42 1129.52 2943.09 1134.43 2949.06 1138.01C2972.28 1151.96 3055.25 1134.09 3127.61 1100.81C3132.26 1099.09 3136.37 1099.76 3139.69 1101.74C3146.01 1105.54 3149.08 1114.75 3148.26 1125.37C3150.05 1124.58 3151.87 1123.8 3153.71 1123.02C3153.78 1120.05 3153.56 1117.21 3153.09 1114.56C3151.66 1106.64 3147.85 1100.43 3142.44 1097.17C3137.86 1094.43 3132.18 1093.42 3125.76 1095.81L3125.38 1095.96C3075.38 1118.96 3020.26 1134.56 2983.82 1137.09C2969.42 1138.1 2958.14 1137.25 2951.81 1133.44C2950.41 1132.6 2949.41 1131.8 2949.18 1130.67C2948.93 1129.35 2949.6 1127.93 2950.58 1126.29C2955.44 1118.21 2969.22 1108.73 2987.09 1098.71C3030.85 1074.13 3098.98 1047.9 3131.85 1038.12C3138.42 1036.45 3143.66 1031.84 3147.62 1025.25C3154.9 1013.13 3157.29 994.118 3154.49 978.772C3152.46 967.638 3147.57 958.492 3140.66 954.345C3137.74 952.599 3133.29 951.265 3128.64 952.345C3117.26 954.145 3086.46 953.799 3059.41 941.719C3088.21 925.532 3105.96 909.732 3113.85 896.598C3119.36 887.438 3120.45 879.265 3118.65 872.345C3116.81 865.319 3111.89 859.412 3104.61 855.039C3091.1 846.919 3069.2 844.158 3047.86 848.265C3026.46 852.385 3005.8 863.358 2994.66 881.892C2990.68 888.532 2988.45 896.238 2987.81 904.172C2963.16 921.132 2928.56 939.492 2893.09 956.492L2892.89 956.598C2888.01 959.198 2884.72 962.705 2881.8 967.585C2881.01 968.895 2880.28 970.278 2879.63 971.719C2879.67 978.187 2878.75 984.76 2876.66 990.705Z" fill="black"/>
<path fill-rule="evenodd" clip-rule="evenodd" d="M3080.03 1248.59C3084.9 1260.97 3092.45 1272.15 3102.52 1280.6C3110.51 1287.3 3122.94 1292.2 3137.64 1294.61C3143.46 1295.56 3149.63 1296.12 3156.02 1296.25C3152.34 1297.88 3148.66 1299.49 3145.16 1301.01C3146.65 1302.29 3148.15 1303.58 3149.64 1304.87C3163.13 1298.99 3178.54 1292.07 3187.17 1288.08C3166.33 1292.34 3145.51 1291.75 3129.12 1287.47C3128.51 1287.31 3127.92 1287.15 3127.32 1286.98C3118.6 1284.5 3111.24 1280.95 3105.94 1276.5C3098.99 1270.67 3093.31 1263.44 3088.98 1255.4C3077.27 1233.66 3075.37 1205.97 3084.65 1183.74C3082.51 1184.39 3080.39 1185.01 3078.28 1185.61C3071.33 1205.39 3072.16 1228.56 3080.03 1248.59Z" fill="black"/>
<path d="M3141 1147.68C3137.81 1152.99 3134.36 1157.23 3129.17 1161.35C3114.91 1167.66 3101.1 1172.94 3087.8 1177.2C3086.71 1179.19 3085.72 1181.23 3084.82 1183.33C3084.77 1183.47 3084.71 1183.6 3084.65 1183.74C3099.6 1179.19 3115.19 1173.36 3131.33 1166.21L3132.49 1165.52C3138.21 1160.97 3142.05 1156.29 3145.57 1150.42C3149.75 1143.46 3152.24 1135.97 3153.23 1128.89C3151.25 1129.73 3149.3 1130.6 3147.38 1131.47C3146.25 1136.87 3144.14 1142.44 3141 1147.68Z" fill="white"/>
<path fill-rule="evenodd" clip-rule="evenodd" d="M3132.49 1165.52L3131.33 1166.21C3115.19 1173.36 3099.6 1179.19 3084.65 1183.74C3075.37 1205.97 3077.27 1233.66 3088.98 1255.4C3093.31 1263.44 3098.99 1270.67 3105.94 1276.5C3111.24 1280.95 3118.6 1284.5 3127.32 1286.98C3127.92 1287.15 3128.51 1287.31 3129.12 1287.47C3145.51 1291.75 3166.33 1292.34 3187.17 1288.08C3178.54 1292.07 3163.13 1298.99 3149.64 1304.87L3149.64 1304.87C3142.49 1307.99 3135.87 1310.82 3131.09 1312.76C3118.22 1311.34 3104.57 1310.76 3090.66 1310.96C3089.93 1310.97 3089.21 1310.98 3088.48 1311C3022.01 1312.34 2949.85 1331.28 2925.4 1360.42C2912.46 1375.84 2913.98 1393.29 2929.4 1406.22C2960.63 1432.42 3046.17 1416.78 3155.33 1369.1L3155.8 1368.9C3158.42 1367.75 3161.06 1366.58 3163.72 1365.4C3186.14 1374.77 3210.65 1381.9 3235.9 1386.62C3269.7 1392.94 3304.83 1394.93 3338.1 1392.18C3341.16 1385.67 3344.93 1380.21 3349.26 1376.09C3359.86 1366 3372.72 1362.01 3384.89 1363.31C3394.37 1361.94 3404.28 1360.38 3415.03 1358.61C3420.36 1345.35 3418.49 1331.63 3411.32 1325.61C3408.34 1323.12 3404.98 1322.32 3400.62 1322.71C3336.14 1339.33 3284.37 1350.45 3213.34 1342.37C3219.5 1339.26 3225.74 1336.05 3232.15 1332.76L3232.27 1332.69L3232.28 1332.69C3275.14 1310.64 3325.55 1284.71 3408.76 1258.81C3412.53 1257.93 3416.21 1255.96 3418.2 1253.58C3429.14 1240.54 3421.02 1210.49 3405.6 1197.54C3403.64 1195.91 3401.75 1195.01 3399.55 1193.96C3399.08 1193.74 3398.59 1193.51 3398.09 1193.27C3396.38 1167.59 3386.29 1133.86 3366.73 1117.44C3328.07 1085 3223.57 1098.71 3153.23 1128.89C3152.24 1135.97 3149.75 1143.46 3145.57 1150.42C3142.05 1156.29 3138.21 1160.97 3132.49 1165.52ZM3122.97 1226.12C3116 1234.42 3119.74 1239.58 3122.72 1242.08C3153.54 1267.94 3322.54 1227.89 3359.86 1183.42C3365.34 1176.9 3365.54 1173.04 3361.4 1169.56C3330.57 1143.68 3149.84 1194.1 3122.97 1226.12Z" fill="white"/>
<path d="M3352.94 1379.95C3362.46 1370.88 3374.05 1367.32 3384.97 1368.69C3393.58 1367.45 3402.54 1366.06 3412.15 1364.49C3413.28 1362.55 3414.23 1360.59 3415.03 1358.61C3404.28 1360.38 3394.37 1361.94 3384.89 1363.31C3372.72 1362.01 3359.86 1366 3349.26 1376.09C3344.93 1380.21 3341.16 1385.67 3338.1 1392.18C3340.18 1392.01 3342.25 1391.82 3344.32 1391.61C3346.78 1386.99 3349.68 1383.05 3352.94 1379.95Z" fill="black"/>
<path d="M3392.69 1382.73C3399.04 1379.97 3403.61 1375.73 3407.58 1370.99C3409.33 1368.9 3410.86 1366.72 3412.15 1364.49C3402.54 1366.06 3393.58 1367.45 3384.97 1368.69C3374.05 1367.32 3362.46 1370.88 3352.94 1379.95C3349.68 1383.05 3346.78 1386.99 3344.32 1391.61C3361.12 1389.9 3377.38 1386.96 3392.69 1382.73Z" fill="white"/>
<path d="M3487.08 1536.52C3451.77 1570.15 3410.74 1568.6 3373.38 1529.36C3333.05 1487.02 3328.16 1429.67 3341.67 1397.21C3339.71 1397.39 3337.75 1397.55 3335.78 1397.7C3332.49 1406.43 3330.38 1416.65 3329.77 1427.77C3327.97 1460.4 3338.9 1500.89 3369.52 1533.04C3389.32 1553.83 3410.2 1564.44 3430.7 1565.59C3451.38 1566.75 3471.88 1558.36 3490.76 1540.37C3502.88 1528.82 3519.57 1509.24 3535.74 1490.27L3535.75 1490.26L3535.75 1490.26C3550.95 1472.42 3565.69 1455.13 3575.74 1445.56C3600.1 1422.35 3622.49 1418.15 3645.26 1417.63C3650.65 1418.32 3656.04 1416.12 3659.2 1413.11C3665.2 1407.39 3668.41 1396.72 3668.25 1384.45C3668.02 1367.36 3661.57 1347.25 3650.16 1335.25C3643.12 1327.88 3633.34 1323.19 3622.16 1324.88C3546.02 1336.26 3493.93 1345.17 3453.97 1352.02L3453.94 1352.02C3442.28 1354.02 3431.65 1355.84 3421.76 1357.49L3421.07 1357.61C3420.43 1359.54 3419.66 1361.48 3418.75 1363.4C3429.63 1361.59 3441.39 1359.58 3454.44 1357.35C3494.44 1350.5 3546.61 1341.57 3622.96 1330.16C3632.3 1328.74 3640.41 1332.77 3646.29 1338.93C3663.9 1357.44 3668.41 1396.96 3655.52 1409.24C3653.28 1411.37 3649.41 1412.92 3645.6 1412.28C3621.49 1412.79 3597.84 1417.13 3572.06 1441.69C3562.01 1451.25 3547.29 1468.53 3532.1 1486.36L3532.09 1486.38L3532.08 1486.38L3532.08 1486.38L3532.07 1486.39C3515.91 1505.37 3499.21 1524.96 3487.08 1536.52Z" fill="black"/>
<path d="M3415.03 1358.61C3414.23 1360.59 3413.28 1362.55 3412.15 1364.49C3413.46 1364.27 3414.77 1364.06 3416.1 1363.84C3416.98 1363.69 3417.86 1363.55 3418.75 1363.4C3419.66 1361.48 3420.43 1359.54 3421.07 1357.61C3419.03 1357.95 3417.01 1358.28 3415.03 1358.61Z" fill="black"/>
<path fill-rule="evenodd" clip-rule="evenodd" d="M3341.67 1397.21C3342.49 1395.25 3343.37 1393.38 3344.32 1391.61C3361.12 1389.9 3377.38 1386.96 3392.69 1382.73C3399.04 1379.97 3403.61 1375.73 3407.58 1370.99C3409.33 1368.9 3410.86 1366.72 3412.15 1364.49C3413.46 1364.27 3414.77 1364.06 3416.1 1363.84C3416.98 1363.69 3417.86 1363.55 3418.75 1363.4C3429.63 1361.59 3441.39 1359.58 3454.44 1357.35C3494.44 1350.5 3546.61 1341.57 3622.96 1330.16C3632.3 1328.74 3640.41 1332.77 3646.29 1338.93C3663.9 1357.44 3668.41 1396.96 3655.52 1409.24C3653.28 1411.37 3649.41 1412.92 3645.6 1412.28C3621.49 1412.79 3597.84 1417.13 3572.06 1441.69C3562.01 1451.25 3547.29 1468.53 3532.1 1486.36L3532.09 1486.38L3532.08 1486.38L3532.08 1486.38L3532.07 1486.39C3515.91 1505.37 3499.21 1524.96 3487.08 1536.52C3451.77 1570.15 3410.74 1568.6 3373.38 1529.36C3333.05 1487.02 3328.16 1429.67 3341.67 1397.21ZM3094.72 1167.06C3105.52 1154.18 3124.35 1141.94 3147.38 1131.47C3146.25 1136.87 3144.14 1142.44 3141 1147.68C3137.81 1152.99 3134.36 1157.23 3129.17 1161.35C3114.91 1167.66 3101.1 1172.94 3087.8 1177.2C3089.77 1173.61 3092.07 1170.21 3094.72 1167.06ZM3401.7 1423.29C3384.26 1442.03 3370.77 1479.48 3385.17 1494.61C3399.58 1509.75 3424.54 1496.67 3466.02 1457.17C3481.72 1442.23 3500.24 1423.51 3521.04 1401.57C3513.68 1403.07 3506.16 1404.64 3498.54 1406.23L3498.52 1406.23C3466.28 1412.97 3432.33 1420.06 3401.7 1423.29Z" fill="white"/>
<path fill-rule="evenodd" clip-rule="evenodd" d="M3385.17 1494.61C3370.77 1479.48 3384.26 1442.03 3401.7 1423.29C3432.33 1420.06 3466.28 1412.97 3498.52 1406.23L3498.54 1406.23C3506.16 1404.64 3513.68 1403.07 3521.04 1401.57C3500.24 1423.51 3481.72 1442.23 3466.02 1457.17C3424.54 1496.67 3399.58 1509.75 3385.17 1494.61ZM3385.02 1469.19C3383.66 1477.91 3384.28 1485.93 3389.04 1490.93C3394.77 1496.95 3402.64 1496.59 3413.16 1491.56C3426.02 1485.41 3442.14 1472.53 3462.34 1453.31C3474.96 1441.29 3489.4 1426.85 3505.37 1410.25C3503.3 1410.68 3501.22 1411.12 3499.14 1411.55C3467.58 1418.13 3434.41 1425.05 3404.3 1428.37C3395.05 1438.97 3387.21 1454.99 3385.02 1469.19Z" fill="black"/>
<path fill-rule="evenodd" clip-rule="evenodd" d="M2331.09 971.046C2321.47 972.766 2311.87 973.312 2302.4 972.492C2294.61 971.819 2287.4 970.192 2280.77 967.795C2247.71 955.862 2228.87 924.855 2224.72 897.65C2233.14 884.421 2241.29 869.766 2249.06 853.785L2249.32 853.158C2251.25 847.438 2251.46 841.959 2250.6 835.719C2249.83 830.249 2247.99 824.812 2245.43 819.786C2300.32 708.044 2443.24 524.338 2474.24 504.145C2478.36 501.385 2482.28 500.945 2486.9 501.345C2504.65 502.892 2521.21 526.852 2519.21 549.985C2516.68 579.292 2470.76 625.038 2421.33 666.598C2407.79 682.859 2392.66 700.451 2377.49 718.089L2376.36 719.412C2399.54 702.772 2421.3 693.785 2441.36 695.518C2480.68 698.918 2511.08 742.732 2507.4 785.145C2501.93 848.4 2417.39 954.247 2332.99 970.691C2332.35 970.815 2331.72 970.933 2331.09 971.046ZM2242.44 826C2231.96 848.163 2225.28 867.165 2224.08 881.025C2223.86 883.569 2223.79 886.206 2223.89 888.91C2230.91 877.42 2237.72 864.913 2244.26 851.452C2245.93 846.532 2246.05 841.825 2245.3 836.452C2244.81 832.909 2243.82 829.383 2242.44 826ZM2282.22 909.372C2281.22 920.945 2283.57 929.692 2293.6 930.558C2333.69 934.025 2448.3 794.785 2452.44 746.972C2453.24 737.718 2449.85 731.985 2441.37 731.252C2409.76 728.518 2346.34 796.838 2291.2 877.518C2286.26 889.518 2283.02 900.118 2282.22 909.372Z" fill="white"/>
<path d="M2224.72 897.65C2224.27 894.681 2223.99 891.758 2223.89 888.91C2222.33 891.463 2220.76 893.966 2219.19 896.418C2219.52 898.943 2219.96 901.503 2220.53 904.082C2221.94 901.977 2223.34 899.833 2224.72 897.65Z" fill="black"/>
<path d="M2242.28 814.353C2241.34 816.255 2240.41 818.139 2239.51 820.002C2240.61 821.929 2241.59 823.938 2242.44 826L2242.73 825.384C2243.6 823.539 2244.5 821.673 2245.43 819.786C2244.48 817.911 2243.42 816.094 2242.28 814.353Z" fill="black"/>
<path d="M1889.62 853.842C1891.09 854.919 1892.52 856.109 1893.91 857.408C1919.01 785.607 1975.08 700.49 2024.65 693.612C2050.72 689.998 2082.52 705.118 2102.7 721.065L2102.82 721.019C2105.74 719.848 2108.67 718.672 2112.45 718.145C2132.38 715.385 2159.48 730.372 2161.7 746.478C2162.13 749.545 2161.9 753.479 2159.26 756.972C2141.73 788.319 2089.64 897.145 2094.1 929.332C2095.06 936.239 2098.56 938.879 2104.69 938.025C2125.38 935.159 2167.3 882.452 2205.04 805.318C2207.02 802.705 2209.88 800.745 2212.17 800.425C2221.33 799.151 2232.66 807.989 2239.51 820.002C2240.41 818.139 2241.34 816.255 2242.28 814.353C2239.34 809.85 2235.86 805.863 2232.14 802.732C2225.42 797.065 2217.93 794.238 2211.44 795.145C2208.06 795.612 2203.7 798.252 2200.78 802.105L2200.25 802.972C2174.17 856.265 2146.14 897.798 2124.62 918.865C2116.38 926.932 2109.44 931.985 2103.96 932.745C2102.64 932.932 2101.56 933.038 2100.8 932.438C2099.9 931.705 2099.62 930.372 2099.38 928.599C2098.12 919.452 2101.9 903.798 2107.96 885.505C2122.66 841.025 2151.48 781.892 2163.74 759.865C2167.17 755.145 2167.57 749.878 2166.98 745.745C2165.93 738.078 2160.4 730.438 2152.32 724.465C2141.04 716.145 2124.94 711.025 2111.72 712.865C2108.62 713.292 2106.02 714.092 2103.57 714.999C2082.29 698.985 2050.28 684.665 2023.92 688.332C1994.92 692.359 1963.37 721.679 1937.04 760.265C1917.49 788.902 1900.74 822.5 1889.62 853.842Z" fill="black"/>
<path d="M1889.47 956.277C1888.59 958.196 1887.69 960.113 1886.78 962.026C1896.36 977.195 1911.1 989.643 1927.75 997.111C1941.68 1003.36 1956.94 1006.12 1971.64 1004.08C1987.21 1001.92 2002.58 994.115 2017.35 981.427C2027.61 972.607 2037.59 961.424 2047.14 948.132C2055.53 958.567 2066.33 967.777 2078.84 973.979C2092.02 980.52 2107.09 983.716 2123.22 981.478C2134.94 979.85 2146.79 975.386 2158.58 968.229C2164.64 964.544 2170.69 960.145 2176.69 955.052C2191.71 942.311 2206.47 925.169 2220.53 904.082C2219.96 901.503 2219.52 898.943 2219.19 896.418C2196.24 932.058 2171.3 956.924 2146.29 968.831C2138.34 972.614 2130.39 975.089 2122.49 976.185C2110.95 977.79 2100 976.404 2089.98 972.912C2072.03 966.659 2057.05 953.655 2047 938.999C2034.33 957.715 2020.91 972.623 2007 982.943C2006.48 983.325 2005.97 983.701 2005.45 984.071C1994.2 992.12 1982.64 997.165 1970.9 998.798C1959.69 1000.36 1948.12 998.93 1937.16 995.19C1917.39 988.445 1899.61 974.171 1889.47 956.277Z" fill="black"/>
<path d="M1780.48 1089.59C1771.17 1213.16 1743.85 1299.73 1705 1315.13C1686.29 1322.55 1670.21 1315.59 1662.8 1296.88C1647.03 1257.05 1671.39 1170.15 1708.93 1108.28C1712.09 1103.08 1715.34 1098.06 1718.66 1093.25C1719.63 1084.5 1720.87 1069.82 1721.9 1056.28C1722.62 1046.93 1723.24 1038.12 1723.61 1032.19C1720.59 1042.16 1716.55 1051.58 1711.85 1060.05C1701.4 1078.89 1687.71 1093.03 1674.81 1098.15C1657.83 1104.87 1638.33 1104.37 1620.73 1098.38C1607.77 1093.97 1595.84 1086.58 1586.71 1076.92C1586.4 1079.1 1586.08 1081.26 1585.73 1083.4C1593.78 1091.06 1603.53 1097.21 1614.09 1101.48C1634.11 1109.57 1657.04 1110.93 1676.78 1103.1C1690.32 1097.73 1704.86 1083.09 1716 1063.48C1715.16 1073.92 1714.26 1084.25 1713.5 1091.35C1709.13 1097.73 1704.88 1104.49 1700.81 1111.53C1680.92 1145.91 1665.08 1186.9 1657.5 1223.31C1651.2 1253.63 1650.72 1280.85 1657.84 1298.84C1662.14 1309.71 1669.09 1317.04 1677.54 1320.69C1686 1324.36 1696.1 1324.38 1706.96 1320.09C1723.48 1313.54 1738.42 1295.2 1750.57 1266.77C1767.72 1226.66 1779.9 1166.11 1785.62 1092.27C1792.63 1086.52 1799.5 1080.38 1806.2 1073.91C1824.69 1056.03 1841.83 1035.59 1856.8 1013.74C1868.17 997.15 1878.28 979.743 1886.78 962.026C1885.62 960.198 1884.54 958.329 1883.54 956.426C1874 976.868 1862.25 996.938 1848.86 1015.84C1832.76 1038.59 1814.28 1059.64 1794.43 1077.63C1789.85 1081.79 1785.19 1085.78 1780.48 1089.59Z" fill="black"/>
<path fill-rule="evenodd" clip-rule="evenodd" d="M1652.49 1067.03C1648.89 1068.45 1642.57 1069.29 1638.58 1059.21C1623.18 1020.36 1664.76 837.385 1702.17 822.558C1707.21 820.558 1710.5 822.585 1713.64 830.505C1735.02 884.465 1689.92 1052.2 1652.49 1067.03ZM1647.42 1062.39C1648.58 1062.79 1649.7 1062.38 1650.53 1062.06C1654.33 1060.56 1658.12 1057.05 1662.01 1052.21C1668.64 1043.92 1675.2 1031.84 1681.34 1017.49C1696.01 983.252 1708.13 936.318 1712.29 896.185C1715 870.118 1714.44 846.998 1708.69 832.465C1707.96 830.612 1707.24 829.158 1706.45 828.092C1706.39 828.018 1706.34 827.946 1706.29 827.876L1706.29 827.875C1706.05 827.54 1705.85 827.262 1705.54 827.185C1705.19 827.085 1704.82 827.235 1704.39 827.412L1704.3 827.451L1704.21 827.488L1704.13 827.518C1700.37 829.012 1696.69 832.692 1692.92 837.798C1686.37 846.625 1679.98 859.558 1673.98 874.812C1657.32 917.278 1644 977.425 1641.17 1018.92C1640.01 1035.87 1640.49 1049.56 1643.53 1057.25C1644.72 1060.24 1645.92 1061.87 1647.42 1062.39Z" fill="black"/>
<path fill-rule="evenodd" clip-rule="evenodd" d="M1590.72 1020.78L1590.74 1021.45C1590.5 1041.3 1589.14 1059.85 1586.71 1076.92C1595.84 1086.58 1607.77 1093.97 1620.73 1098.38C1638.33 1104.37 1657.83 1104.87 1674.81 1098.15C1687.71 1093.03 1701.4 1078.89 1711.85 1060.05C1716.55 1051.58 1720.59 1042.16 1723.61 1032.19C1723.24 1038.12 1722.62 1046.93 1721.9 1056.28C1720.87 1069.82 1719.63 1084.5 1718.66 1093.25C1715.34 1098.06 1712.09 1103.08 1708.93 1108.28C1671.39 1170.15 1647.03 1257.05 1662.8 1296.88C1670.21 1315.59 1686.29 1322.55 1705 1315.13C1743.85 1299.73 1771.17 1213.16 1780.48 1089.59C1785.19 1085.78 1789.85 1081.79 1794.43 1077.63C1814.28 1059.64 1832.76 1038.59 1848.86 1015.84C1862.25 996.938 1874 976.868 1883.54 956.426C1879.69 949.091 1877.04 941.229 1875.9 933.065C1873.34 914.594 1878.06 888.021 1887.79 859.145C1879.59 852.58 1870.07 850.115 1863.2 852.838C1859.6 854.265 1857.29 856.852 1855.54 860.865C1839.54 925.466 1824.7 976.278 1783.87 1034.9L1783.82 1034.97L1783.82 1034.92C1784.01 1028.04 1784.16 1021.05 1784.3 1013.87L1784.3 1013.84L1784.3 1013.77V1013.77C1785.28 965.571 1786.43 908.874 1803.21 823.319C1804.22 819.585 1804.24 815.425 1803.1 812.545C1796.84 796.705 1766.53 789.572 1747.82 796.985C1745.41 797.936 1743.7 799.195 1741.68 800.677L1741.67 800.683L1741.61 800.727L1741.19 801.04C1740.96 801.21 1740.72 801.383 1740.48 801.559C1717.08 790.839 1682.61 783.692 1658.86 793.092C1611.54 811.842 1573.67 911.852 1567.26 988.344C1573.99 992.385 1580.17 997.936 1584.44 1004.46C1587.88 1009.74 1590.02 1014.78 1590.72 1020.78ZM1638.58 1059.21C1642.57 1069.29 1648.89 1068.45 1652.49 1067.03C1689.92 1052.2 1735.02 884.465 1713.64 830.505C1710.5 822.585 1707.21 820.558 1702.17 822.558C1664.76 837.385 1623.18 1020.36 1638.58 1059.21Z" fill="white"/>
<path fill-rule="evenodd" clip-rule="evenodd" d="M1561.79 991.38C1551.83 986.199 1541.06 984.722 1534.62 988.919C1532.69 990.185 1530.94 993.185 1530.26 996.398C1529.02 1082.25 1513.58 1147.8 1496.09 1159.23C1490.9 1162.61 1486.62 1161.72 1482.81 1155.88C1465.04 1128.67 1465.76 1008.03 1468.24 972.185C1469.13 967.905 1467.66 964.239 1465.97 961.652C1457.09 948.039 1426.2 946.025 1409.34 957.039C1406.1 959.145 1403.93 961.492 1401.77 963.825C1376.7 958.012 1341.49 957.892 1319.46 972.279C1260.49 1010.8 1255.95 1194.95 1291.5 1249.39C1300.63 1263.36 1315.22 1273.29 1331.58 1278.55C1354.67 1285.98 1381.28 1284.13 1401 1271.25C1421.22 1258.04 1434.73 1232.31 1441.97 1197.72C1442.85 1193.52 1443.63 1189.18 1444.33 1184.72C1447.48 1186.56 1450.79 1188.25 1454.23 1189.76C1476.84 1199.66 1504.84 1201.59 1528.46 1186.16C1546.95 1174.08 1561.32 1152.26 1571 1122.61C1575.3 1109.43 1578.68 1094.7 1581.09 1078.59C1575.64 1072.46 1571.24 1065.53 1568.24 1057.95C1561.75 1041.58 1559.88 1017.96 1561.79 991.38ZM1359.62 1241.88C1363.01 1247.05 1367.08 1249.03 1372.26 1245.64C1407.25 1222.79 1404.06 1038.13 1377.41 997.305C1374.44 992.772 1371.45 991.025 1366.92 993.985C1333.22 1016 1335.5 1204.93 1359.62 1241.88Z" fill="white"/>
<path d="M1582.07 1071.49C1578.41 1066.74 1575.4 1061.55 1573.2 1055.99C1567.14 1040.69 1565.26 1018.93 1566.81 994.363C1565.18 993.266 1563.5 992.269 1561.79 991.38C1559.88 1017.96 1561.75 1041.58 1568.24 1057.95C1571.24 1065.53 1575.64 1072.46 1581.09 1078.59C1581.43 1076.25 1581.76 1073.88 1582.07 1071.49Z" fill="white"/>
<path d="M1585.41 1021.39C1584.82 1016.24 1582.93 1011.92 1579.97 1007.39C1576.62 1002.27 1571.97 997.822 1566.81 994.363C1565.26 1018.93 1567.14 1040.69 1573.2 1055.99C1575.4 1061.55 1578.41 1066.74 1582.07 1071.49C1584.07 1055.94 1585.19 1039.19 1585.41 1021.39Z" fill="white"/>
<path d="M1855.54 860.865C1857.29 856.852 1859.6 854.265 1863.2 852.838C1870.07 850.115 1879.59 852.58 1887.79 859.145C1888.38 857.385 1888.99 855.617 1889.62 853.842C1886.98 851.895 1884.23 850.316 1881.49 849.132C1874.25 845.998 1866.98 845.598 1861.22 847.878C1856.3 849.838 1853.04 853.252 1850.65 858.745L1850.37 859.585C1835.92 917.892 1822.49 964.879 1789.58 1016.71L1789.64 1013.91C1790.61 965.97 1791.75 909.567 1808.41 824.532C1809.69 819.678 1809.54 814.305 1808.06 810.572C1805.08 803.038 1797.73 796.918 1788.3 793.145C1775.21 787.892 1758.22 787.119 1745.85 792.025C1743.52 792.945 1741.73 794.092 1739.84 795.438C1715.37 784.918 1680.9 778.625 1656.89 788.132C1630.29 798.678 1606.1 833.612 1588.86 876.359C1574.91 910.96 1565.43 950.557 1562.25 985.666C1563.94 986.463 1565.61 987.359 1567.26 988.344C1573.67 911.852 1611.54 811.842 1658.86 793.092C1682.61 783.692 1717.08 790.839 1740.48 801.559C1740.72 801.383 1740.96 801.21 1741.19 801.04L1741.61 800.727L1741.67 800.683L1741.68 800.677C1743.7 799.195 1745.41 797.936 1747.82 796.985C1766.53 789.572 1796.84 796.705 1803.1 812.545C1804.24 815.425 1804.22 819.585 1803.21 823.319C1786.43 908.874 1785.28 965.571 1784.3 1013.77V1013.77L1784.3 1013.84L1784.3 1013.87C1784.16 1021.05 1784.01 1028.04 1783.82 1034.92L1783.87 1034.9C1824.7 976.278 1839.54 925.466 1855.54 860.865Z" fill="black"/>
<path d="M2441.36 695.518C2480.68 698.918 2511.08 742.732 2507.4 785.145C2501.93 848.4 2417.39 954.247 2332.99 970.691C2332.35 970.815 2331.72 970.933 2331.09 971.046C2321.47 972.766 2311.87 973.312 2302.4 972.492C2294.61 971.819 2287.4 970.192 2280.77 967.795C2247.71 955.862 2228.87 924.855 2224.72 897.65C2223.34 899.833 2221.94 901.977 2220.53 904.082C2225.8 927.904 2241.32 953.326 2266.83 967.336C2276.96 972.899 2288.66 976.662 2301.93 977.812C2317.53 979.163 2333.49 976.953 2349.29 971.979C2382.15 961.634 2414.35 939.331 2441.36 912.212C2481.18 872.238 2509.57 821.985 2512.72 785.598C2516.64 740.318 2483.8 693.838 2441.81 690.198C2429.01 689.092 2415.49 692.038 2401.4 698.438C2409.61 688.825 2417.61 679.385 2425.12 670.372C2454.96 645.265 2483.46 618.665 2502.09 595.025C2515.24 578.345 2523.45 562.932 2524.53 550.452C2525.85 535.092 2519.81 519.385 2510.5 508.932C2503.92 501.518 2495.7 496.759 2487.37 496.039C2481.49 495.532 2476.53 496.198 2471.29 499.692C2448.4 514.638 2364.64 617.998 2299.88 716.572C2277.22 751.064 2256.93 784.99 2242.28 814.353C2243.42 816.094 2244.48 817.911 2245.43 819.786C2300.32 708.044 2443.24 524.338 2474.24 504.145C2478.36 501.385 2482.28 500.945 2486.9 501.345C2504.65 502.892 2521.21 526.852 2519.21 549.985C2516.68 579.292 2470.76 625.038 2421.33 666.598C2407.79 682.859 2392.66 700.451 2377.49 718.089L2376.36 719.412C2399.54 702.772 2421.3 693.785 2441.36 695.518Z" fill="black"/>
<path d="M2245.3 836.452C2246.05 841.825 2245.93 846.532 2244.26 851.452C2237.72 864.913 2230.91 877.42 2223.89 888.91C2223.99 891.758 2224.27 894.681 2224.72 897.65C2233.14 884.421 2241.29 869.766 2249.06 853.785L2249.32 853.158C2251.25 847.438 2251.46 841.959 2250.6 835.719C2249.83 830.249 2247.99 824.812 2245.43 819.786C2244.5 821.673 2243.6 823.539 2242.73 825.384L2242.44 826C2243.82 829.383 2244.81 832.909 2245.3 836.452Z" fill="black"/>
<path fill-rule="evenodd" clip-rule="evenodd" d="M2005.45 984.071C1994.2 992.12 1982.64 997.165 1970.9 998.798C1959.69 1000.36 1948.12 998.93 1937.16 995.19C1917.39 988.445 1899.61 974.171 1889.47 956.277C1898.39 936.793 1905.32 917.004 1909.78 897.572L1909.9 896.852C1910.57 889.052 1908.88 882.225 1906.3 875.719C1903.37 868.31 1898.95 862.138 1893.91 857.408C1919.01 785.607 1975.08 700.49 2024.65 693.612C2050.72 689.998 2082.52 705.118 2102.7 721.065L2102.82 721.019C2105.74 719.848 2108.67 718.672 2112.45 718.145C2132.38 715.385 2159.48 730.372 2161.7 746.478C2162.13 749.545 2161.9 753.479 2159.26 756.972C2141.73 788.319 2089.64 897.145 2094.1 929.332C2095.06 936.239 2098.56 938.879 2104.69 938.025C2125.38 935.159 2167.3 882.452 2205.04 805.318C2207.02 802.705 2209.88 800.745 2212.17 800.425C2221.33 799.151 2232.66 807.989 2239.51 820.002C2240.61 821.929 2241.59 823.938 2242.44 826C2243.82 829.383 2244.81 832.909 2245.3 836.452C2246.05 841.825 2245.93 846.532 2244.26 851.452C2237.72 864.913 2230.91 877.42 2223.89 888.91C2222.33 891.463 2220.76 893.966 2219.19 896.418C2196.24 932.058 2171.3 956.924 2146.29 968.831C2138.34 972.614 2130.39 975.089 2122.49 976.185C2110.95 977.79 2100 976.404 2089.98 972.912C2072.03 966.659 2057.05 953.655 2047 938.999C2034.33 957.715 2020.91 972.623 2007 982.943C2006.48 983.325 2005.97 983.701 2005.45 984.071ZM1892 863.016C1883.06 890.094 1878.76 914.89 1881.18 932.332C1882.04 938.504 1883.83 944.492 1886.38 950.182C1894.3 932.296 1900.5 914.189 1904.58 896.385C1905.18 889.492 1903.62 883.452 1901.34 877.692C1899.06 871.923 1895.78 866.986 1892 863.016ZM1946.01 954.585C1946.86 960.718 1949.69 964.239 1955.82 963.385C1997.22 957.639 2073.09 789.252 2066.38 740.958C2065.64 735.585 2063.69 732.732 2058.32 733.478C2018.45 739.012 1939.94 910.892 1946.01 954.585Z" fill="white"/>
<path d="M1901.34 877.692C1903.62 883.452 1905.18 889.492 1904.58 896.385C1900.5 914.189 1894.3 932.296 1886.38 950.182C1887.31 952.255 1888.34 954.288 1889.47 956.277C1898.39 936.793 1905.32 917.004 1909.78 897.572L1909.9 896.852C1910.57 889.052 1908.88 882.225 1906.3 875.719C1903.37 868.31 1898.95 862.138 1893.91 857.408C1893.27 859.236 1892.65 861.055 1892.05 862.864L1892 863.016C1895.78 866.986 1899.06 871.923 1901.34 877.692Z" fill="black"/>
<path d="M1893.91 857.408C1892.52 856.109 1891.09 854.919 1889.62 853.842C1888.99 855.617 1888.38 857.385 1887.79 859.145C1889.24 860.309 1890.65 861.601 1892 863.016L1892.05 862.864C1892.65 861.055 1893.27 859.236 1893.91 857.408Z" fill="black"/>
<path d="M1875.9 933.065C1877.04 941.229 1879.69 949.091 1883.54 956.426C1884.51 954.348 1885.46 952.267 1886.38 950.182C1883.83 944.492 1882.04 938.504 1881.18 932.332C1878.76 914.89 1883.06 890.094 1892 863.016C1890.65 861.601 1889.24 860.309 1887.79 859.145C1878.06 888.021 1873.34 914.594 1875.9 933.065Z" fill="white"/>
<path d="M1886.78 962.026C1887.69 960.113 1888.59 958.196 1889.47 956.277C1888.34 954.288 1887.31 952.255 1886.38 950.182C1885.46 952.267 1884.51 954.348 1883.54 956.426C1884.54 958.329 1885.62 960.198 1886.78 962.026Z" fill="black"/>
<path fill-rule="evenodd" clip-rule="evenodd" d="M1365.92 918.839C1395.08 899.799 1409.45 855.279 1393.37 830.652C1378.13 807.319 1338.66 803.505 1310.8 821.705C1279.69 842.025 1268.31 888.292 1284.81 913.558C1302.17 940.132 1343.88 933.225 1365.92 918.839ZM1323.29 908.772C1326.25 913.305 1330.53 914.212 1335.72 910.825C1354.52 898.545 1363.16 846.678 1353.85 832.425C1351.32 828.532 1347.02 827.638 1341.2 831.438C1320.45 844.985 1313.97 894.518 1323.29 908.772Z" fill="white"/>
<path fill-rule="evenodd" clip-rule="evenodd" d="M1017.35 950.118C1017.29 1013.64 1050.86 1292.24 1078.8 1420C1083.14 1439.84 1087.36 1456.08 1091.28 1467.37C1094.16 1475.65 1097.03 1481.46 1099.59 1484.48C1104.4 1490.13 1111.1 1494.41 1118.75 1497.34C1126.44 1500.3 1135.1 1501.9 1143.78 1502.21C1154.78 1502.6 1165.73 1500.91 1174.66 1497.55C1179.7 1495.65 1184.1 1493.23 1187.49 1490.35C1194.11 1484.71 1197.23 1478.77 1196.66 1471.12C1196.54 1469.59 1196.28 1467.99 1195.87 1466.31L1195.79 1466.03C1192.61 1455.54 1188.59 1439.31 1184.01 1418.76C1157.35 1299.11 1111.71 1033.09 1102.09 902.852L1102.07 902.625C1101.57 898.332 1099.38 893.892 1097.05 891.145C1093.63 887.118 1088.42 884.452 1082.25 883.278C1123.78 841.918 1163.98 805.705 1197.38 777.318C1205.78 770.185 1211.47 762.185 1213.38 755.359C1215.05 749.412 1214.13 744.119 1210.67 740.052C1206.72 735.399 1198.77 731.732 1188.24 730.372C1166.4 727.558 1132.8 733.972 1106.89 755.985C981.718 862.332 866.425 990.105 804.654 1092.6C752.597 1178.51 748.227 1239.84 782.102 1279.72C820.086 1324.43 894.381 1327.73 950.629 1279.96C985.694 1250.16 1004.3 1210.4 1008.01 1176.77C1010.58 1153.4 1005.91 1132.93 995.052 1120.15C985.362 1108.74 971.466 1101.88 959.452 1100.28C950.477 1099.08 942.504 1100.85 937.393 1105.2C932.756 1109.15 930.425 1114.07 930.656 1121.85L930.665 1122.05C931.848 1139.77 928.628 1172.41 917.921 1202.48C910.917 1222.13 900.733 1240.73 886.246 1253.04C878.708 1259.44 871.606 1261.78 865.254 1261.06C859.054 1260.37 853.733 1256.8 849.646 1251.99C839.773 1240.36 837.797 1224.17 841.805 1204.55C846.104 1183.51 857.277 1158.72 873.933 1131.24C909.354 1073.31 961.748 1009.38 1017.35 950.118ZM1092.99 894.598C1094.74 896.665 1096.4 900.012 1096.77 903.252C1106.5 1035 1153.04 1305.47 1179.65 1423.63C1183.92 1442.61 1187.68 1457.66 1190.69 1467.57C1191.78 1472.01 1191.49 1475.72 1189.92 1479.06C1188.71 1481.63 1186.74 1483.99 1184.04 1486.28C1183.88 1486.41 1183.73 1486.54 1183.57 1486.66C1170.63 1497.17 1142.82 1500.25 1122.12 1492.95C1114.72 1490.35 1108.23 1486.42 1103.65 1481.03C1074.97 1447.27 1020.5 1013.13 1022.75 945.972C1022.86 944.645 1022.88 943.389 1022.91 942.183V942.182C1022.95 939.91 1022.99 937.818 1023.58 935.771C963.982 998.265 907.105 1066.76 869.377 1128.46C835.302 1184.69 823.925 1229.94 845.581 1255.44C855.531 1267.14 871.786 1272.32 889.699 1257.1C927.591 1224.9 938.01 1152 935.986 1121.69C935.816 1115.91 937.401 1112.18 940.846 1109.27C951.18 1100.48 976.354 1106.39 990.988 1123.6C1016.16 1153.23 1003.67 1227.89 947.176 1275.89C893.437 1321.54 822.456 1318.97 786.166 1276.27C753.389 1237.68 758.846 1178.48 809.218 1095.35C870.754 993.252 985.645 865.985 1110.34 760.052C1145.48 730.198 1195.49 730.412 1206.61 743.505C1212.46 750.398 1206.33 762.718 1193.93 773.265C1158.1 803.692 1114.49 843.118 1069.78 888.225C1079.49 887.092 1088.3 889.092 1092.99 894.598Z" fill="black"/>
<path d="M1061.5 2863.49C1298.35 3230.26 1731.6 3475.41 2224.93 3475.41C2718.25 3475.41 3151.5 3230.26 3388.35 2863.49H3335.44C3103.81 3204.17 2693.48 3431.41 2224.93 3431.41C1756.37 3431.41 1346.04 3204.17 1114.42 2863.49H1061.5Z" fill="white"/>
<path d="M3566.54 3411.34C3563.93 3415.07 3559.04 3416.4 3553.72 3412.68C3536.16 3400.39 3522.21 3347.84 3534.86 3329.75C3540.08 3322.3 3550.02 3320.54 3562.8 3321.55C3570.57 3368.2 3572.13 3403.36 3566.54 3411.34Z" fill="black"/>
<path d="M2983.09 3641.16C2995.28 3635.06 3006.9 3637.97 3015.9 3655.97C3043.48 3711.16 3008.9 3839.51 2973.48 3857.22C2959.53 3864.19 2945.89 3854.31 2935.14 3831.37C2927.89 3815.4 2923.53 3796.52 2921.5 3776.48C2920.93 3721.6 2953.46 3655.97 2983.09 3641.16Z" fill="black"/>
<path d="M2715.29 3844C2729.17 3895.4 2671.86 3964.69 2628.61 3976.36C2603.53 3983.14 2589.1 3969.55 2583.52 3948.86C2570.14 3899.33 2626.13 3852.6 2684.64 3805.19C2699.3 3814.68 2710.54 3826.44 2715.29 3844Z" fill="black"/>
<path d="M1193.72 3689.85C1189.85 3687.46 1188.25 3682.65 1191.66 3677.13C1202.93 3658.9 1254.61 3642 1273.39 3653.61C1281.12 3658.39 1283.44 3668.22 1283.16 3681.02C1237.03 3691.43 1202 3694.98 1193.72 3689.85Z" fill="black"/>
<path d="M718.585 3150.59C711.573 3138.89 721.042 3129.42 740.646 3119.18C855.262 3060.32 1078.76 3084.56 1107.15 3131.89C1113.83 3143.04 1108.48 3153.06 1090.1 3164.08C990.962 3223.51 746.968 3197.93 718.585 3150.59Z" fill="black"/>
<path d="M1370.94 997.905C1371.24 998.185 1372.32 999.265 1372.94 1000.22C1378.28 1008.38 1382.48 1022.64 1385.72 1040.18C1393.54 1082.69 1395.06 1144.1 1388.56 1188.88C1386.24 1204.92 1382.9 1218.8 1378.37 1228.74C1375.76 1234.5 1372.86 1238.88 1369.34 1241.17C1368.54 1241.69 1367.89 1242.07 1367.22 1241.99C1365.96 1241.82 1365.14 1240.57 1364.16 1239.07L1364.09 1238.96C1359.29 1231.6 1355.57 1217.84 1352.72 1200.57C1345.77 1158.54 1344.72 1096.32 1351.2 1051.01C1353.53 1034.75 1356.8 1020.72 1361.2 1010.72C1363.72 1004.97 1366.46 1000.65 1369.84 998.452C1370.16 998.225 1370.66 998.022 1370.9 997.921L1370.94 997.905Z" fill="black"/>
<path d="M1650.53 1062.06C1649.7 1062.38 1648.58 1062.79 1647.42 1062.39C1645.92 1061.87 1644.72 1060.24 1643.53 1057.25C1640.49 1049.56 1640.01 1035.87 1641.17 1018.92C1644 977.425 1657.32 917.278 1673.98 874.812C1679.98 859.558 1686.37 846.625 1692.92 837.798C1696.69 832.692 1700.37 829.012 1704.13 827.518L1704.21 827.488L1704.3 827.451L1704.39 827.412C1704.82 827.235 1705.19 827.085 1705.54 827.185C1705.85 827.262 1706.05 827.54 1706.29 827.875L1706.29 827.876C1706.34 827.946 1706.39 828.018 1706.45 828.092C1707.24 829.158 1707.96 830.612 1708.69 832.465C1714.44 846.998 1715 870.118 1712.29 896.185C1708.13 936.318 1696.01 983.252 1681.34 1017.49C1675.2 1031.84 1668.64 1043.92 1662.01 1052.21C1658.12 1057.05 1654.33 1060.56 1650.53 1062.06Z" fill="black"/>
<path d="M2060.29 738.732C2060.44 739.118 2060.94 740.559 2061.1 741.692C2062.45 751.345 2060.18 766.039 2055.61 783.292C2044.57 825.065 2019.76 881.265 1994.78 918.985C1985.84 932.519 1976.9 943.639 1968.57 950.705C1963.74 954.799 1959.25 957.518 1955.09 958.092C1954.16 958.225 1953.4 958.279 1952.84 957.919C1951.76 957.243 1951.55 955.759 1951.31 953.995L1951.29 953.852C1950.09 945.145 1952.58 931.119 1957.37 914.279C1969.01 873.305 1994.6 816.572 2019.78 778.359C2028.82 764.639 2037.77 753.345 2046.01 746.172C2050.74 742.052 2055.08 739.318 2059.05 738.758C2059.48 738.705 2060.05 738.718 2060.29 738.732Z" fill="black"/>
<path d="M2294.05 925.238C2290.65 924.945 2288.85 923.025 2288.04 920.145C2287.24 917.265 2287.2 913.745 2287.53 909.838C2288.29 901.158 2291.34 891.265 2295.92 880.065C2334.04 824.358 2376.04 774.599 2408.57 750.692C2421.34 741.292 2432.33 735.825 2440.9 736.572C2442.84 736.732 2444.37 737.212 2445.41 738.238C2447.2 739.998 2447.44 742.892 2447.12 746.518C2446.3 756.038 2440.7 769.318 2432.28 784.425C2411.76 821.158 2374.24 867.918 2341.25 897.492C2329.4 908.118 2318.17 916.505 2308.56 921.265C2302.98 924.025 2298.09 925.598 2294.05 925.238Z" fill="black"/>
<path d="M2585.72 971.572C2581.37 970.052 2581.8 966.118 2583.62 960.905C2586.8 951.852 2595.17 940.065 2606.6 927.105C2634.25 895.772 2679.78 858.225 2717.98 836.905C2731.66 829.278 2744.36 823.732 2754.89 821.452C2761.05 820.118 2766.36 819.865 2770.49 821.305C2772.33 821.958 2773.69 822.798 2774.44 824.038C2775.73 826.198 2775.25 829.052 2774.04 832.492C2770.77 841.825 2762.45 852.918 2751.34 865.945C2716.78 866.105 2681.54 890.385 2668.26 928.265C2667.13 931.492 2666.02 934.718 2665.32 938.092C2645.02 951.865 2625.22 962.972 2609.21 968.585C2599.44 972.012 2591.32 973.532 2585.72 971.572Z" fill="black"/>
<path d="M2719.93 1033.24C2707.09 1028.74 2695.18 1021.6 2685.6 1011.68C2668.04 1018.39 2650.22 1022.97 2633.3 1024.9C2726.46 1052.19 2815.31 1088.58 2898.62 1132.93C2899.38 1133.33 2900.14 1133.74 2900.9 1134.14C2889.78 1109.96 2889.12 1083.13 2901.12 1063.16C2907.86 1051.95 2919.69 1041.15 2936.7 1030.92C2959.38 1017.28 2991.46 1004.46 3032.77 992.412C3023.88 984.772 3015.9 976.078 3009.25 967.185L3005.92 969.098L3005.91 969.1C2974.42 987.189 2938.08 1008.06 2899.26 1026.65L2898.25 1027.01C2893.5 1028.2 2889.93 1027.45 2885.98 1025.08C2880.66 1021.88 2876.74 1014.64 2875.29 1005.52C2874.78 1002.35 2874.55 998.961 2874.6 995.494C2873.17 998.293 2871.38 1001.06 2869.36 1003.37L2868.42 1004.21C2830.05 1031.44 2768.24 1050.18 2719.93 1033.24Z" fill="black"/>
<path d="M3005.33 1196.05C3030.23 1212.34 3054.51 1229.38 3078.13 1247.15C3078.76 1247.63 3079.4 1248.11 3080.03 1248.59C3072.16 1228.56 3071.33 1205.39 3078.28 1185.61C3051.68 1193.15 3027.19 1196.55 3005.33 1196.05Z" fill="white"/>
<path fill-rule="evenodd" clip-rule="evenodd" d="M2687.05 1005.4C2696.42 1016.07 2708.54 1023.6 2721.69 1028.21C2768.44 1044.61 2828.21 1026.21 2865.34 999.865C2868.08 996.718 2870.34 992.599 2871.64 988.945C2878.29 969.958 2871.85 943.905 2860.16 939.812C2857.24 938.785 2854.53 939.479 2851.57 940.892C2807.72 974.732 2745.85 1001.41 2721.76 992.958C2720.69 992.59 2720.15 991.966 2719.47 991.176C2719.21 990.881 2718.94 990.562 2718.61 990.225C2764.29 965.238 2804.54 927.679 2818.37 888.239C2838.88 829.812 2781.28 771.865 2752.06 761.612C2695.09 741.638 2554.28 839.052 2529.42 909.905C2516.78 945.926 2532.41 985.929 2564.32 1006.55C2569.93 1010.18 2576.05 1013.2 2582.61 1015.51C2593.29 1019.26 2605.41 1020.86 2618.36 1020.61L2618.37 1020.61C2639.94 1020.2 2663.8 1014.66 2687.05 1005.4ZM2578.6 959.145C2575.52 967.905 2576.65 974.039 2583.94 976.599C2600.01 982.239 2634.54 965.652 2670.18 941.239C2670.73 937.332 2672.01 933.679 2673.29 930.025C2686.1 893.505 2720.49 870.305 2753.77 871.319C2766.24 856.825 2775.49 844.479 2779.08 834.252C2782.14 825.492 2780.29 819.092 2772.26 816.279C2731.36 801.932 2594.48 913.852 2578.6 959.145Z" fill="white"/>
<path fill-rule="evenodd" clip-rule="evenodd" d="M2731.05 989.252C2773.77 963.745 2810.21 927.625 2823.41 889.998C2834.25 859.105 2824.68 828.292 2808.29 803.892C2792.04 779.692 2769.14 761.958 2753.82 756.585C2743.97 753.132 2731.78 752.798 2718.17 755.198C2698.8 758.625 2676.33 767.572 2653.66 780.105C2597.24 811.305 2539.62 864.732 2524.4 908.132C2512.35 942.47 2524.36 980.246 2551.39 1003.52C2559.83 1010.79 2569.74 1016.64 2580.84 1020.53C2596.05 1025.87 2614.1 1027.09 2633.3 1024.9L2633.3 1024.9C2650.22 1022.97 2668.04 1018.39 2685.6 1011.68C2695.18 1021.6 2707.09 1028.74 2719.93 1033.24C2768.24 1050.18 2830.05 1031.44 2868.42 1004.21L2869.36 1003.37C2871.38 1001.06 2873.17 998.293 2874.6 995.494C2874.71 987.38 2876.38 978.841 2879.63 971.719C2879.58 964.537 2878.34 957.486 2876.17 951.572C2873.04 942.998 2867.81 936.838 2861.93 934.771C2857.62 933.265 2853.62 933.998 2849.26 936.092L2848.32 936.678C2822.48 956.598 2790.28 974.025 2763.54 982.972C2750.93 987.185 2739.65 989.638 2731.05 989.252ZM2721.69 1028.21C2708.54 1023.6 2696.42 1016.07 2687.05 1005.4C2663.8 1014.66 2639.94 1020.2 2618.37 1020.61L2618.36 1020.61C2605.41 1020.86 2593.29 1019.26 2582.61 1015.51C2576.05 1013.2 2569.93 1010.18 2564.32 1006.55C2532.41 985.929 2516.78 945.926 2529.42 909.905C2554.28 839.052 2695.09 741.638 2752.06 761.612C2781.28 771.865 2838.88 829.812 2818.37 888.239C2804.54 927.679 2764.29 965.238 2718.61 990.225C2718.94 990.562 2719.21 990.881 2719.47 991.176C2720.15 991.966 2720.69 992.59 2721.76 992.958C2745.85 1001.41 2807.72 974.732 2851.57 940.892C2854.53 939.479 2857.24 938.785 2860.16 939.812C2871.85 943.905 2878.29 969.958 2871.64 988.945C2870.34 992.599 2868.08 996.718 2865.34 999.865C2828.21 1026.21 2768.44 1044.61 2721.69 1028.21Z" fill="black"/>
<path d="M2874.6 995.494C2875.42 993.88 2876.12 992.256 2876.66 990.705C2878.75 984.76 2879.67 978.187 2879.63 971.719C2876.38 978.841 2874.71 987.38 2874.6 995.494Z" fill="black"/>
<path d="M3126.14 1237.99C3125.46 1237.43 3124.57 1236.61 3124.37 1235.41C3124.12 1233.84 3124.98 1232.01 3127.05 1229.54C3132.37 1223.21 3144.18 1216.29 3159.65 1209.25C3197.49 1192.01 3256.74 1175.12 3302.02 1169.6C3318.29 1167.63 3332.72 1167.09 3343.6 1168.65C3349.88 1169.55 3354.86 1171.04 3357.97 1173.64C3358.04 1173.7 3358.1 1173.75 3358.17 1173.8C3358.53 1174.1 3358.84 1174.36 3358.93 1174.72C3359.01 1175.03 3358.85 1175.34 3358.67 1175.71L3358.63 1175.8C3358.6 1175.85 3358.58 1175.9 3358.56 1175.95C3358 1177.15 3357.06 1178.47 3355.78 1180C3345.73 1191.97 3325.65 1203.45 3301.44 1213.45C3264.14 1228.88 3217.09 1240.53 3180 1243.91C3164.46 1245.32 3150.7 1245.3 3140.26 1243.4C3134.16 1242.29 3129.28 1240.63 3126.14 1237.99Z" fill="black"/>
<path d="M3400.62 1322.71C3404.98 1322.32 3408.34 1323.12 3411.32 1325.61C3418.49 1331.63 3420.36 1345.35 3415.03 1358.61C3417.01 1358.28 3419.03 1357.95 3421.07 1357.61C3423.08 1351.5 3423.76 1345.4 3423.28 1339.95C3422.6 1332.09 3419.49 1325.51 3414.74 1321.52C3410.68 1318.12 3406.12 1316.87 3400.16 1317.39L3399.29 1317.53C3341.12 1332.53 3293.4 1343.06 3232.14 1338.76L3234.68 1337.45C3277.31 1315.52 3327.47 1289.71 3410.17 1263.95C3415.05 1262.77 3419.7 1260.09 3422.28 1257.01C3427.49 1250.81 3429.38 1241.43 3428.22 1231.35C3426.62 1217.33 3419.22 1202.02 3409.02 1193.46C3407.1 1191.85 3405.25 1190.82 3403.16 1189.8C3400.78 1163.26 3389.93 1129.96 3370.16 1113.36C3348.22 1094.96 3306 1090.29 3260.2 1095.45C3224 1099.54 3185.65 1109.62 3153.71 1123.02C3153.67 1124.93 3153.51 1126.89 3153.23 1128.89C3223.57 1098.71 3328.07 1085 3366.73 1117.44C3386.29 1133.86 3396.38 1167.59 3398.09 1193.27C3398.59 1193.51 3399.08 1193.74 3399.55 1193.96C3401.75 1195.01 3403.64 1195.91 3405.6 1197.54C3421.02 1210.49 3429.14 1240.54 3418.2 1253.58C3416.21 1255.96 3412.53 1257.93 3408.76 1258.81C3325.55 1284.71 3275.14 1310.64 3232.28 1332.69L3232.27 1332.69L3232.15 1332.76C3225.74 1336.05 3219.5 1339.26 3213.34 1342.37C3284.37 1350.45 3336.14 1339.33 3400.62 1322.71Z" fill="black"/>
<path d="M2929.4 1406.22C2913.98 1393.29 2912.46 1375.84 2925.4 1360.42C2949.85 1331.28 3022.01 1312.34 3088.48 1311C3089.21 1310.98 3089.93 1310.97 3090.66 1310.96C3104.57 1310.76 3118.22 1311.34 3131.09 1312.76C3135.87 1310.82 3142.49 1307.99 3149.64 1304.87L3149.64 1304.87C3148.15 1303.58 3146.65 1302.29 3145.16 1301.01C3139.55 1303.45 3134.38 1305.65 3130.33 1307.32C3115.03 1305.7 3098.68 1305.25 3082.1 1305.86C3049.53 1307.04 3016.03 1312.3 2987.6 1320.78C2957.93 1329.65 2933.76 1342.17 2921.3 1357C2913.8 1365.95 2910.65 1375.55 2911.45 1384.72C2912.25 1393.91 2917.02 1402.8 2925.97 1410.32C2939.58 1421.73 2962.82 1426.16 2993.61 1423.33C3036.13 1419.43 3093.65 1402.03 3159.56 1373.07C3160.97 1372.45 3162.38 1371.83 3163.8 1371.2C3187.97 1381.09 3214.45 1388.45 3241.66 1393.05L3242.13 1393.13C3273.22 1398.35 3305.23 1399.98 3335.78 1397.7C3336.5 1395.78 3337.27 1393.94 3338.1 1392.18C3304.83 1394.93 3269.7 1392.94 3235.9 1386.62C3210.65 1381.9 3186.14 1374.77 3163.72 1365.4C3161.06 1366.58 3158.42 1367.75 3155.8 1368.9L3155.33 1369.1C3046.17 1416.78 2960.63 1432.42 2929.4 1406.22Z" fill="black"/>
<path d="M3344.32 1391.61C3342.25 1391.82 3340.18 1392.01 3338.1 1392.18C3337.27 1393.94 3336.5 1395.78 3335.78 1397.7C3337.75 1397.55 3339.71 1397.39 3341.67 1397.21C3342.49 1395.25 3343.37 1393.38 3344.32 1391.61Z" fill="black"/>
<path d="M3389.04 1490.93C3384.28 1485.93 3383.66 1477.91 3385.02 1469.19C3387.21 1454.99 3395.05 1438.97 3404.3 1428.37C3434.41 1425.05 3467.58 1418.13 3499.14 1411.55C3501.22 1411.12 3503.3 1410.68 3505.37 1410.25C3489.4 1426.85 3474.96 1441.29 3462.34 1453.31C3442.14 1472.53 3426.02 1485.41 3413.16 1491.56C3402.64 1496.59 3394.77 1496.95 3389.04 1490.93Z" fill="black"/>
<path d="M2224.93 966.745C2238.94 966.745 2252.91 966.943 2266.83 967.336C2241.32 953.326 2225.8 927.904 2220.53 904.082C2206.47 925.169 2191.71 942.311 2176.69 955.052C2170.69 960.145 2164.64 964.544 2158.58 968.229C2180.56 967.243 2202.68 966.745 2224.93 966.745Z" fill="black"/>
<path d="M1923.34 998.035C1924.81 997.725 1926.28 997.417 1927.75 997.111C1911.1 989.643 1896.36 977.195 1886.78 962.026C1878.28 979.743 1868.17 997.15 1856.8 1013.74C1878.76 1008 1900.95 1002.76 1923.34 998.035Z" fill="black"/>
<path d="M2077.48 974.115C2077.93 974.069 2078.39 974.024 2078.84 973.979C2066.33 967.777 2055.53 958.567 2047.14 948.132C2037.59 961.424 2027.61 972.607 2017.35 981.427C2037.26 978.584 2057.3 976.144 2077.48 974.115Z" fill="black"/>
<path d="M1332.8 906.358C1331.6 907.145 1330.57 907.692 1329.6 907.518C1328.82 907.385 1328.3 906.692 1327.76 905.852C1326.24 903.545 1325.37 900.052 1324.88 895.918C1324.02 888.732 1324.49 879.772 1326.21 870.852C1328.97 856.505 1334.73 842.038 1344.1 835.905C1346.54 834.318 1348.33 833.718 1349.38 835.332C1350.88 837.625 1351.64 841.159 1352.04 845.372C1352.73 852.785 1352 862.078 1350.1 871.292C1347.06 886.038 1341.32 900.798 1332.8 906.358Z" fill="black"/>
<path d="M1577.64 1119.23C1589.68 1113.14 1601.83 1107.23 1614.09 1101.48C1603.53 1097.21 1593.78 1091.06 1585.73 1083.4C1583.65 1096.27 1580.95 1108.24 1577.64 1119.23Z" fill="black"/>
<path d="M1487.85 2237.5C1479.22 2241.99 1466.95 2249.39 1451.04 2259.69C1435.64 2269.89 1418.07 2282.41 1398.33 2297.25C1378.49 2311.58 1357.38 2327.52 1335.02 2345.05C1313.17 2362.47 1291.23 2380.71 1269.19 2399.76C1247.67 2418.71 1226.96 2437.76 1207.07 2456.89C1187.69 2475.92 1170.85 2494.4 1156.57 2512.34C1142.17 2529.78 1130.98 2546 1122.99 2561.01C1115.62 2576.41 1113.07 2589.47 1115.34 2600.16C1116.97 2607.8 1121.28 2614.34 1128.29 2619.77C1135.41 2625.71 1144.1 2630.25 1154.35 2633.4C1165.11 2636.43 1176.93 2638.18 1189.8 2638.64C1203.19 2638.99 1216.75 2637.7 1230.51 2634.78C1263.61 2627.74 1295.34 2611.68 1325.68 2586.6C1356.52 2561.41 1383.78 2530.6 1407.44 2494.16C1431.11 2457.72 1450.18 2417.19 1464.65 2372.59C1479.13 2327.99 1486.86 2282.96 1487.85 2237.5ZM1214.64 2131.86C1355.43 2025.28 1416.72 1929.2 1398.54 1843.62C1384.57 1777.92 1333.53 1754.43 1245.41 1773.16C1218.92 1778.79 1192.12 1787.94 1165 1800.63C1138.39 1813.21 1113.09 1828.17 1089.1 1845.51C1064.99 1862.35 1043.05 1880.59 1023.27 1900.23C1003.48 1919.87 987.685 1939.47 975.869 1959.02C971.565 1966.32 967.57 1973.83 963.884 1981.53C960.707 1989.13 957.731 1996.41 954.955 2003.39C952.581 2009.75 950.244 2015.04 947.946 2019.26C946.157 2023.36 944.244 2025.63 942.206 2026.07C940.678 2026.39 938.988 2025.95 937.135 2024.75C935.282 2023.54 934.139 2021.92 933.706 2019.89C933.165 2017.34 933.772 2012.69 935.529 2005.92C937.796 1999.05 940.718 1991.51 944.296 1983.3C954.813 1957.64 970.949 1932.11 992.704 1906.73C1014.46 1881.34 1039.5 1857.65 1067.83 1835.66C1096.68 1813.56 1127.5 1794.49 1160.29 1778.47C1193.49 1761.83 1226.64 1750 1259.75 1742.96C1311.7 1731.91 1353.24 1733.2 1384.35 1746.82C1415.46 1760.44 1434.97 1785.84 1442.87 1823.02C1453.37 1872.43 1445.87 1919.81 1420.38 1965.15C1395.28 2009.88 1353.63 2054.41 1295.44 2098.72C1328.96 2083.61 1358.44 2075.74 1383.86 2075.13C1409.79 2074.41 1431.7 2078.54 1449.58 2087.52C1467.97 2096.38 1482.68 2109.23 1493.7 2126.05C1504.62 2142.36 1512.45 2160.4 1517.18 2180.15C1517.62 2182.19 1517.94 2183.72 1518.16 2184.74C1518.88 2185.65 1519.66 2186.81 1520.5 2188.23C1521.22 2189.14 1521.59 2189.6 1521.59 2189.6C1522.1 2189.49 1522.66 2189.64 1523.28 2190.04C1531.29 2185.14 1536.97 2181.8 1540.31 2180.03C1544.06 2177.63 1546.7 2176.27 1548.23 2175.95C1549.76 2175.62 1550.83 2175.66 1551.45 2176.06C1551.96 2175.96 1552.98 2175.74 1554.51 2175.41C1556.03 2175.09 1557.38 2176.4 1558.54 2179.35C1560.2 2182.19 1560.69 2184.48 1560 2186.22C1557.27 2188.4 1555.45 2189.85 1554.54 2190.58C1553.63 2191.31 1552.46 2192.09 1551.04 2192.92C1550.13 2193.65 1548.31 2195.1 1545.58 2197.28C1543.25 2198.84 1539.3 2201.54 1533.73 2205.38C1530.08 2208.29 1527.57 2211.48 1526.18 2214.97C1525.3 2218.36 1524.82 2224.85 1524.73 2234.45C1524.87 2262.64 1522 2291.73 1516.13 2321.72C1510.26 2351.72 1501.63 2381.24 1490.23 2410.28C1478.84 2439.32 1464.77 2467.06 1448.03 2493.51C1431.3 2519.96 1412.18 2543.99 1390.69 2565.6C1369.81 2587.6 1346.34 2606.17 1320.27 2621.29C1294.82 2636.81 1267.58 2647.66 1238.55 2653.83C1218.68 2658.05 1199.6 2659.71 1181.31 2658.81C1163.13 2658.42 1146.6 2655.81 1131.73 2650.98C1117.48 2646.56 1105.46 2640.06 1095.65 2631.5C1086.46 2623.34 1080.62 2613.4 1078.13 2601.68C1074.24 2583.35 1079.14 2562.61 1092.86 2539.46C1106.68 2516.83 1125.65 2493.36 1149.77 2469.07C1173.88 2444.78 1201.16 2420.35 1231.61 2395.77C1262.57 2371.09 1292.83 2348.16 1322.4 2326.97C1351.96 2305.78 1379.11 2286.96 1403.83 2270.53C1428.95 2253.47 1447.74 2240.43 1460.2 2231.4C1469.92 2224.54 1476.29 2219.46 1479.32 2216.15C1482.74 2212.23 1483.37 2205.17 1481.21 2194.99C1477.63 2178.18 1471.58 2163.49 1463.06 2150.93C1454.93 2137.75 1443.98 2127.57 1430.21 2120.38C1416.84 2112.57 1400.44 2108.07 1381.02 2106.88C1361.5 2105.17 1338.54 2107.39 1312.16 2113.53C1294.95 2117.72 1280.45 2122.13 1268.66 2126.77C1256.87 2131.4 1246.39 2134.7 1237.22 2136.65C1232.64 2137.62 1228.66 2137.67 1225.27 2136.79C1221.79 2135.4 1218.24 2133.76 1214.64 2131.86ZM1178.83 2478.07C1177.41 2478.9 1175.73 2479.79 1173.81 2480.73C1172.39 2481.56 1171.17 2482.09 1170.15 2482.31C1167.09 2482.96 1164 2480.95 1160.88 2476.29C1158.16 2471.01 1155.43 2464.41 1152.68 2456.47C1150.44 2448.43 1148.29 2439.57 1146.23 2429.89C1144.17 2420.22 1142.22 2411.05 1140.38 2402.39C1136.59 2384.56 1132.53 2365.46 1128.2 2345.08C1124.38 2324.6 1120.47 2304.94 1116.46 2286.09C1112.86 2266.63 1109.32 2248.75 1105.86 2232.45C1102.9 2216.04 1100.4 2203 1098.34 2193.32C1093.76 2169.27 1089.58 2148.33 1085.79 2130.5C1082 2112.68 1078.7 2097.14 1075.88 2083.9C1072.96 2070.14 1070.47 2058.43 1068.41 2048.75C1066.86 2038.96 1066.04 2030.09 1065.94 2022.12C1065.38 2009.47 1068.38 2003.51 1074.92 2004.24C1077.28 2005.34 1079.24 2007.05 1080.8 2009.38C1082.77 2011.1 1084.49 2014.19 1085.97 2018.67C1087.35 2022.63 1088.85 2028.44 1090.47 2036.08C1092.5 2043.1 1094.81 2052.72 1097.41 2064.95C1103.14 2091.94 1109.17 2121.54 1115.48 2153.74C1121.79 2185.94 1128.17 2219.72 1134.63 2255.08C1141.59 2290.33 1148.56 2326.92 1155.56 2364.82C1162.95 2402.12 1170.71 2439.86 1178.83 2478.07ZM1619.96 2262.92C1626.29 2262.64 1633.2 2260.1 1640.7 2255.32C1648.09 2250.02 1654.34 2243.1 1659.45 2234.56C1655.29 2220.01 1652.15 2205.23 1650.03 2190.25C1647.8 2174.75 1646.93 2161.89 1647.42 2151.67C1647.68 2147.89 1648.14 2143.8 1648.8 2139.4C1649.36 2134.49 1649.87 2130.65 1650.35 2127.89C1651.71 2121.75 1654.66 2116.86 1659.21 2113.23C1663.26 2109.71 1667.24 2109.66 1671.16 2113.09C1674.98 2116 1677.13 2121.13 1677.63 2128.48C1677.66 2131.14 1677.82 2135.63 1678.1 2141.96C1678.27 2147.78 1678.71 2154.87 1679.43 2163.24C1680.5 2175.78 1681.86 2187.21 1683.51 2197.5C1685.57 2207.18 1688.18 2215.68 1691.33 2222.99C1697.85 2238.64 1706.42 2246.4 1717.04 2246.28C1727.55 2245.64 1736.89 2240.73 1745.05 2231.54C1752.7 2222.46 1758.34 2211.41 1761.96 2198.4C1765.48 2184.87 1768.95 2172.42 1772.39 2161.04C1773.67 2157.04 1774.71 2154.43 1775.51 2153.19C1776.32 2151.96 1777.59 2151.69 1779.33 2152.38C1780.57 2153.18 1781.04 2154.15 1780.75 2155.27C1780.86 2155.78 1780.52 2157.98 1779.75 2161.87C1778.03 2171.29 1775.87 2182.4 1773.26 2195.2C1771.06 2207.38 1767.31 2218.55 1762.02 2228.73C1756.11 2238.5 1749.01 2246.4 1740.71 2252.43C1732.81 2257.83 1724.27 2261.51 1715.1 2263.46C1706.33 2264.79 1697.64 2263.97 1689.03 2261.01C1680.92 2257.95 1673.71 2252.82 1667.4 2245.65C1666.49 2246.37 1665.28 2248.23 1663.79 2251.21C1662.18 2253.68 1658.19 2257.45 1651.82 2262.54C1636.63 2273.75 1621.39 2279.65 1606.07 2280.24C1590.76 2280.84 1578.29 2276.03 1568.67 2265.83C1559.89 2257.05 1553.27 2242.22 1548.83 2221.34C1543.42 2195.87 1543.06 2174.12 1547.74 2156.09C1549.02 2152.09 1550.35 2148.35 1551.74 2144.86C1553.64 2141.26 1555.5 2138.74 1557.32 2137.28C1559.43 2134.7 1563.29 2132.82 1568.89 2131.63C1574.9 2129.82 1579.08 2129.46 1581.44 2130.56C1582.57 2130.85 1583.4 2132.27 1583.95 2134.82C1584.49 2137.36 1584.47 2139.77 1583.88 2142.02C1582.19 2154.09 1581.47 2167.02 1581.74 2180.8C1582.52 2194.48 1584.57 2207.89 1587.9 2221.02C1593.85 2249.04 1604.54 2263 1619.96 2262.92ZM1782.83 2088.55C1783.29 2093.24 1783.81 2098.19 1784.39 2103.39C1784.96 2108.59 1785.84 2114 1787.03 2119.6C1790.71 2136.92 1797.65 2144.49 1807.84 2142.33C1813.44 2141.14 1818.35 2137.96 1822.58 2132.81C1827.32 2127.54 1832.49 2124.31 1838.09 2123.12C1845.22 2121.61 1849.76 2125.43 1851.71 2134.6C1853.55 2143.26 1853.52 2153.12 1851.61 2164.17C1849.7 2175.22 1849.88 2186.1 1852.15 2196.79C1853.67 2203.93 1856.19 2209.51 1859.71 2213.56C1863.63 2216.98 1867.83 2217.95 1872.31 2216.47C1879.22 2213.93 1885.34 2208.91 1890.66 2201.39C1895.88 2193.36 1900.42 2184.67 1904.29 2175.33C1908.67 2165.88 1912.54 2156.54 1915.9 2147.31C1919.15 2137.57 1921.66 2129.32 1923.42 2122.55C1924.44 2122.34 1925.25 2122.43 1925.87 2122.83C1926.49 2123.23 1927.05 2123.38 1927.56 2123.27C1921.58 2152.76 1914.02 2177.26 1904.85 2196.77C1896.09 2215.67 1882.29 2227.12 1863.44 2231.13C1852.24 2233.51 1842.47 2232.66 1834.15 2228.57C1826.23 2223.87 1821.24 2216.67 1819.19 2207C1817.67 2199.87 1817.21 2191.44 1817.81 2181.73C1818.92 2171.92 1819.82 2162.41 1820.53 2153.21L1803.12 2157.71C1774.59 2163.77 1757.52 2153.56 1751.89 2127.07C1749.61 2116.37 1749.87 2107.54 1752.64 2100.56C1754.8 2093.18 1759.44 2088.73 1766.57 2087.21C1771.67 2086.13 1777.09 2086.58 1782.83 2088.55ZM2031.95 2053.17C2026.94 2052.1 2020.61 2052.38 2012.97 2054.01C2002.27 2056.28 1992.57 2060.74 1983.87 2067.38C1975.56 2073.4 1968.4 2081.05 1962.39 2090.31C1956.88 2099.47 1953.23 2109.83 1951.43 2121.39C1949.52 2132.44 1949.86 2144.08 1952.46 2156.31C1954.84 2167.51 1958.92 2175.43 1964.69 2180.06C1970.98 2184.58 1981.51 2185.27 1996.28 2182.13C2013.09 2178.56 2024.61 2172.65 2030.84 2164.4C2036.97 2155.65 2040.42 2145.6 2041.2 2134.25C2041.88 2122.4 2040.75 2109.59 2037.83 2095.84C2035.31 2081.47 2033.35 2067.24 2031.95 2053.17ZM2053.48 2199.52C2039.7 2217.35 2027.43 2237.27 2016.66 2259.25C2006.3 2280.62 1997.88 2302.37 1991.41 2324.51C1984.93 2346.65 1980.39 2367.85 1977.77 2388.1C1975.77 2408.76 1976.4 2426.72 1979.65 2442C1983.11 2458.3 1989.45 2471.86 1998.67 2482.68C2008.4 2493.39 2018.62 2497.61 2029.31 2495.33C2040.01 2493.06 2048.68 2483.76 2055.33 2467.44C2062.48 2451.02 2067.23 2429.51 2069.56 2402.93C2072.01 2376.85 2071.95 2346.52 2069.39 2311.93C2066.72 2276.83 2061.41 2239.36 2053.48 2199.52ZM2156.81 2065.76L2156.86 2069.74C2146.98 2080.89 2136.96 2092.6 2126.79 2104.88C2117.14 2117.05 2108.59 2128.18 2101.15 2138.28C2097.03 2143.95 2094.02 2148.58 2092.13 2152.18C2090.12 2155.26 2088.63 2158.24 2087.64 2161.11C2087.05 2163.37 2086.78 2165.82 2086.81 2168.48C2087.24 2170.52 2087.84 2173.32 2088.59 2176.88C2098.48 2225.89 2104.53 2270.65 2106.76 2311.17C2108.87 2351.18 2107.45 2385.82 2102.49 2415.09C2098.15 2444.76 2090.37 2468.25 2079.14 2485.54C2068.01 2503.34 2053.54 2514.14 2035.71 2517.93C2016.36 2522.04 1999.4 2517.4 1984.84 2503.99C1969.76 2490.69 1959.68 2472.07 1954.59 2448.13C1947.77 2416.04 1951.36 2379.07 1965.36 2337.24C1979.87 2295.29 2004.28 2248.57 2038.59 2197.09C2041.8 2192.15 2044.26 2188.7 2045.97 2186.74C2047.68 2184.78 2048.89 2182.93 2049.58 2181.18C2049.87 2180.06 2049.75 2178.22 2049.21 2175.67C2048.56 2172.62 2048.13 2170.58 2047.91 2169.56L2045.85 2163.61C2033.24 2176.94 2021.57 2187.14 2010.82 2194.21C2000.59 2201.18 1989.87 2205.85 1978.67 2208.23C1960.84 2212.02 1946.06 2210.11 1934.32 2202.49C1922.48 2194.36 1914.61 2181.12 1910.71 2162.79C1907.79 2149.03 1907.83 2135.45 1910.84 2122.03C1913.73 2108.11 1918.79 2095.59 1926.01 2084.47C1933.63 2072.74 1943.27 2062.97 1954.92 2055.17C1966.97 2046.75 1980.38 2040.97 1995.15 2037.83C2005.85 2035.56 2017.13 2034.76 2028.98 2035.43C2027.43 2025.65 2034.05 2019.18 2048.82 2016.04C2053.91 2014.96 2057.49 2015.53 2059.56 2017.75C2061.52 2019.46 2063.48 2024.9 2065.43 2034.07C2068.46 2048.34 2070.96 2065.11 2072.93 2084.39C2075.4 2103.56 2078.19 2122.93 2081.29 2142.5C2094.11 2130.19 2105.39 2116.88 2115.12 2102.57C2125.37 2088.15 2137.57 2075.44 2151.74 2064.44L2156.81 2065.76ZM2186.82 2068.96L2193.86 2068.26C2198.45 2067.29 2205.47 2065.26 2214.93 2062.19C2224.28 2058.6 2233.78 2054.45 2243.43 2049.74C2253.08 2045.03 2261.29 2039.82 2268.06 2034.12C2274.83 2028.43 2277.57 2022.52 2276.27 2016.41C2275.62 2013.35 2273.86 2011.33 2270.99 2010.34C2268.52 2008.74 2265.39 2007.81 2261.61 2007.55C2258.23 2006.67 2254.7 2006.35 2251.03 2006.6C2247.87 2006.74 2245.26 2007.03 2243.23 2007.46C2228.46 2010.6 2215.93 2018.05 2205.66 2029.82C2195.89 2041.48 2189.61 2054.53 2186.82 2068.96ZM2184.95 2078.94C2183.71 2085.59 2183.57 2091.21 2184.54 2095.8C2187.36 2109.04 2195.6 2119 2209.26 2125.68C2223.33 2131.74 2238.51 2133.04 2254.81 2129.57C2267.54 2126.87 2279.48 2121.67 2290.62 2113.98C2302.17 2105.67 2312.47 2096.55 2321.55 2086.64C2330.51 2076.22 2338.4 2065.76 2345.22 2055.26C2351.93 2044.25 2356.82 2034.69 2359.89 2026.58C2362.95 2025.93 2364.74 2026.88 2365.29 2029.43C2365.72 2031.47 2365.44 2033.92 2364.45 2036.79C2360.91 2047.66 2355.89 2059.11 2349.4 2071.14C2342.79 2082.66 2334.5 2093.74 2324.52 2104.38C2315.04 2114.91 2303.97 2124.18 2291.3 2132.2C2278.63 2140.22 2264.66 2145.85 2249.38 2149.1C2237.15 2151.69 2225.17 2152.91 2213.42 2152.75C2202.07 2151.96 2191.47 2149.69 2181.62 2145.93C2172.17 2141.55 2164.04 2135.83 2157.21 2128.76C2150.39 2121.69 2145.84 2112.81 2143.56 2102.11C2140.96 2089.89 2141.84 2077.72 2146.19 2065.62C2150.94 2052.9 2157.59 2041.63 2166.15 2031.83C2174.61 2021.51 2184.46 2012.76 2195.71 2005.58C2207.36 1997.78 2218.79 1992.69 2230 1990.31C2235.6 1989.12 2241.82 1988.33 2248.66 1987.94C2255.9 1986.93 2262.85 1987.05 2269.5 1988.3C2276.15 1989.55 2281.95 1991.78 2286.89 1994.98C2291.83 1998.19 2295.06 2003.36 2296.58 2010.49C2298.85 2021.19 2295.54 2030.68 2286.66 2038.96C2277.66 2046.72 2266.81 2053.29 2254.11 2058.65C2241.41 2064.01 2228.23 2068.41 2214.59 2071.84C2201.45 2075.17 2191.57 2077.53 2184.95 2078.94ZM2366.31 1964.53C2366.77 1969.22 2367.29 1974.17 2367.86 1979.37C2368.44 1984.57 2369.32 1989.98 2370.51 1995.58C2374.19 2012.9 2381.13 2020.47 2391.31 2018.31C2396.92 2017.12 2401.83 2013.94 2406.06 2008.78C2410.8 2003.52 2415.97 2000.29 2421.57 1999.1C2428.7 1997.58 2433.24 2001.41 2435.19 2010.58C2437.03 2019.24 2437 2029.09 2435.09 2040.15C2433.18 2051.2 2433.36 2062.08 2435.63 2072.77C2437.15 2079.9 2439.67 2085.49 2443.19 2089.53C2447.11 2092.96 2451.31 2093.93 2455.78 2092.45C2462.7 2089.91 2468.82 2084.88 2474.14 2077.36C2479.35 2069.33 2483.9 2060.65 2487.77 2051.31C2492.15 2041.86 2496.02 2032.52 2499.38 2023.29C2502.63 2013.55 2505.14 2005.29 2506.89 1998.53C2507.91 1998.31 2508.73 1998.41 2509.35 1998.81C2509.97 1999.21 2510.53 1999.36 2511.04 1999.25C2505.06 2028.73 2497.49 2053.23 2488.33 2072.75C2479.57 2091.65 2465.77 2103.1 2446.92 2107.11C2435.72 2109.49 2425.95 2108.64 2417.63 2104.55C2409.71 2099.84 2404.72 2092.65 2402.66 2082.97C2401.15 2075.84 2400.69 2067.42 2401.29 2057.71C2402.39 2047.89 2403.3 2038.39 2404.01 2029.18L2386.6 2033.68C2358.07 2039.75 2341 2029.54 2335.37 2003.05C2333.09 1992.35 2333.34 1983.51 2336.12 1976.54C2338.28 1969.16 2342.92 1964.71 2350.05 1963.19C2355.15 1962.11 2360.56 1962.56 2366.31 1964.53Z" fill="white"/>
<path d="M2996.62 1979.8C3006.44 1955.88 3010.18 1930.86 3007.82 1904.75C3002.95 1856.8 2979.3 1821.9 2936.85 1800.05C2911.67 1786.77 2886.6 1782.78 2861.64 1788.08C2841.88 1792.82 2823.01 1802.95 2805.02 1818.49C2786.92 1833.51 2770.04 1853.07 2754.4 1877.16C2739.16 1900.63 2725.49 1927.76 2713.41 1958.54C2701.21 1988.82 2691.13 2021.57 2683.18 2056.8C2675.12 2091.52 2669.33 2128.15 2665.82 2166.7C2662.7 2204.63 2662.03 2242.84 2663.83 2281.32C2665.76 2322.96 2671.35 2363.04 2680.59 2401.53C2689.84 2440.03 2702.11 2475.22 2717.41 2507.1C2739.3 2552.49 2766.21 2586.43 2798.14 2608.93C2830.59 2631.31 2865.01 2640.5 2901.43 2636.48C2925.4 2634.05 2949.11 2626.62 2972.55 2614.18C2995.99 2601.74 3019.08 2585.12 3041.81 2564.32C3052.01 2554.7 3062.68 2542.32 3073.84 2527.17C3085.5 2511.91 3096.29 2496.31 3106.21 2480.36C3116.64 2464.3 3125.85 2448.77 3133.84 2433.76C3141.72 2418.24 3147.49 2405.3 3151.14 2394.94C3156.59 2380.48 3160.57 2371.65 3163.08 2368.45C3166 2364.64 3171.4 2363.75 3179.29 2365.8C3179.21 2367.95 3178.94 2370.4 3178.46 2373.17C3178.38 2375.31 3177.16 2379.57 3174.78 2385.93C3162.11 2418.97 3146.51 2450.76 3127.98 2481.32C3109.34 2511.37 3088.99 2538.32 3066.91 2562.18C3044.83 2586.04 3021.43 2606.19 2996.7 2622.62C2972.49 2638.95 2947.65 2649.82 2922.18 2655.23C2916.07 2656.53 2906.65 2658.53 2893.91 2661.24C2881.07 2663.44 2867.45 2664.47 2853.04 2664.34C2810.86 2663.72 2772.11 2648 2736.81 2617.17C2701.51 2586.34 2673.58 2543.84 2653.01 2489.65C2630.01 2429.05 2616.53 2365.64 2612.57 2299.4C2608.6 2233.16 2614.16 2164.11 2629.22 2092.23C2645.35 2015.33 2668.94 1950.96 2699.97 1899.11C2731.52 1847.15 2768.51 1810.81 2810.96 1790.07C2829.85 1781.27 2848.88 1775.62 2868.05 1773.15C2887.22 1770.67 2905.46 1771.32 2922.76 1775.09C2940.58 1778.76 2956.95 1785.66 2971.88 1795.79C2986.82 1805.93 2999.38 1818.7 3009.57 1834.1C3021.22 1851.32 3028.39 1870.03 3031.08 1890.22C3033.78 1910.41 3031.98 1930.75 3025.69 1951.26C3023.24 1959.76 3020.01 1967.1 3016 1973.28C3010.78 1981.31 3004.33 1983.48 2996.62 1979.8ZM3272.54 2324.42C3270.16 2313.22 3266.17 2304.48 3260.58 2298.21C3254.99 2291.95 3248.88 2289.52 3242.26 2290.93C3236.66 2292.12 3232.47 2296.2 3229.69 2303.18C3227.32 2309.54 3227.16 2317.56 3229.22 2327.24C3231.49 2337.94 3236.55 2346.71 3244.4 2353.56C3252.24 2360.41 3261.69 2364.79 3272.74 2366.7C3274.99 2349.72 3274.92 2335.63 3272.54 2324.42ZM3268.79 2381.92C3252.94 2379.96 3239.6 2374.81 3228.77 2366.47C3218.46 2358.01 3211.84 2346.91 3208.91 2333.15C3206.86 2323.48 3206.64 2313.67 3208.25 2303.75C3199.92 2307.12 3194.01 2316.89 3190.53 2333.07C3186.94 2348.74 3187.04 2365.49 3190.83 2383.31C3194.18 2399.11 3200.05 2411.7 3208.44 2421.1C3217.23 2429.88 3226.46 2433.24 3236.14 2431.18C3252.44 2427.72 3263.32 2411.29 3268.79 2381.92ZM3345.8 2327.22C3346.6 2325.98 3347.62 2325.76 3348.86 2326.57C3350.5 2326.75 3351.02 2327.97 3350.43 2330.22L3349.67 2330.39C3346.97 2335.22 3344.13 2340.62 3341.13 2346.58C3338.14 2352.53 3334.53 2358.09 3330.3 2363.25C3326.08 2368.41 3321.18 2372.91 3315.61 2376.76C3310.04 2380.6 3303.07 2382.88 3294.7 2383.6C3291.52 2391.19 3288.29 2398.53 3285.01 2405.62C3282.12 2412.09 3278.57 2417.9 3274.34 2423.06C3270.62 2428.11 3265.72 2432.61 3259.64 2436.57C3253.96 2439.9 3246.54 2442.54 3237.37 2444.49C3214.96 2449.26 3196.03 2446.63 3180.59 2436.6C3165.55 2425.95 3155.6 2409.17 3150.72 2386.25C3145.74 2362.82 3147.9 2342.93 3157.21 2326.58C3166.4 2309.72 3181.18 2299.12 3201.56 2294.79C3210.73 2292.84 3217.9 2290.25 3223.07 2287.02C3228.74 2283.69 3235.15 2281.26 3242.28 2279.74C3255.52 2276.93 3266.74 2279.6 3275.93 2287.77C3285.52 2295.31 3292.04 2307.23 3295.51 2323.53C3298.43 2337.28 3299.03 2352.6 3297.29 2369.47C3299.43 2369.55 3300.82 2369.79 3301.43 2370.19C3301.94 2370.08 3302.96 2369.86 3304.49 2369.54C3309.07 2368.56 3313.19 2366.62 3316.83 2363.72C3320.36 2360.31 3323.79 2356.38 3327.1 2351.95C3330.42 2347.52 3333.48 2343.14 3336.29 2338.82C3339.61 2334.39 3342.47 2330.32 3344.88 2326.61L3345.8 2327.22ZM3494.78 2388.18C3490.77 2394.36 3485.41 2399.22 3478.72 2402.78C3472.02 2406.33 3464.79 2408.66 3457.05 2409.78C3449.19 2410.38 3441.62 2409.86 3434.35 2408.21C3427.48 2405.95 3421.62 2402.14 3416.75 2396.78C3411.16 2390.52 3407.1 2383.93 3404.56 2377.01C3402.03 2370.1 3400.46 2362.71 3399.85 2354.86C3399.39 2350.16 3400.47 2346.47 3403.09 2343.79C3406.11 2340.48 3409.81 2337.83 3414.18 2335.84C3425.06 2331.93 3434.88 2329.31 3443.65 2327.98C3454.06 2326.83 3461.16 2327.72 3464.98 2330.63C3469.19 2332.93 3472.28 2338.66 3474.22 2347.83C3475.74 2354.96 3477.82 2362.24 3480.46 2369.66C3483 2376.58 3487.77 2382.75 3494.78 2388.18Z" fill="white"/>
</svg>
